<?xml version="1.0" encoding="UTF-8" standalone="no"?>
<svg
   version="1.1"
   width="512"
   height="512"
   x="0"
   y="0"
   viewBox="0 0 80 80"
   xml:space="preserve"
   class=""
   id="svg13"
   xmlns="http://www.w3.org/2000/svg"
   xmlns:svg="http://www.w3.org/2000/svg"><defs
     id="defs13" /><g
     id="g13"><path
       fill="#38b4ca"
       d="m 40.362,12.996 c 3.21,-7.563 9.875,-12.104 15.066,-9.9 5.19,2.203 6.554,10.151 3.344,17.714 -0.106,0.25 -0.216,0.497 -0.33,0.741 0.299,-0.136 0.602,-0.266 0.909,-0.39 7.618,-3.078 15.541,-1.576 17.654,3.653 2.112,5.228 -2.544,11.813 -10.162,14.89 -0.251,0.102 -0.504,0.2 -0.757,0.291 0.307,0.115 0.614,0.238 0.918,0.367 7.563,3.21 12.104,9.875 9.9,15.066 -2.203,5.19 -10.151,6.554 -17.714,3.344 -0.25,-0.106 -0.497,-0.216 -0.741,-0.33 0.136,0.299 0.266,0.602 0.39,0.909 3.078,7.618 1.576,15.541 -3.653,17.654 -5.228,2.112 -11.813,-2.544 -14.89,-10.162 a 23.111,23.111 0 0 1 -0.291,-0.757 c -0.115,0.307 -0.238,0.614 -0.367,0.918 -3.21,7.563 -9.875,12.104 -15.066,9.9 -5.19,-2.203 -6.554,-10.151 -3.344,-17.714 0.108,-0.254 0.22,-0.505 0.336,-0.754 -0.249,0.116 -0.5,0.228 -0.754,0.336 -7.563,3.21 -15.511,1.847 -17.715,-3.344 -2.203,-5.19 2.338,-11.856 9.9,-15.066 0.301,-0.128 0.603,-0.248 0.906,-0.362 a 23.08,23.08 0 0 1 -0.905,-0.362 c -7.563,-3.21 -12.104,-9.875 -9.9,-15.066 2.203,-5.19 10.151,-6.554 17.714,-3.344 0.25,0.106 0.497,0.216 0.741,0.33 a 23.078,23.078 0 0 1 -0.39,-0.909 C 18.083,13.031 19.585,5.108 24.814,2.995 c 5.228,-2.112 11.813,2.545 14.89,10.162 0.102,0.251 0.2,0.504 0.291,0.757 0.115,-0.307 0.238,-0.614 0.367,-0.918 z"
       opacity="1"
       data-original="#38b4ca"
       class=""
       id="path1"
       style="fill-rule:evenodd" /><path
       fill="#365a7c"
       d="m 44.356,6.773 c 0.274,0.47 0.545,0.947 0.811,1.432 1.809,3.3 3.162,6.546 3.87,9.613 0.019,0.078 0.037,0.156 0.054,0.235 1.64,-1.048 3.527,-1.975 5.615,-2.793 a 51.074,51.074 0 0 1 5.777,-1.853 c -0.088,2.362 -0.65,4.904 -1.71,7.403 -0.107,0.25 -0.217,0.497 -0.33,0.741 0.298,-0.136 0.601,-0.266 0.908,-0.39 2.444,-0.987 4.919,-1.503 7.224,-1.576 l -0.118,0.443 c -1.124,4.17 -2.605,7.904 -4.509,10.881 l 0.234,0.053 c 3.067,0.71 6.313,2.062 9.613,3.87 0.506,0.278 1.004,0.561 1.493,0.848 -1.734,1.608 -3.928,3.008 -6.445,4.025 -0.251,0.101 -0.504,0.198 -0.757,0.29 0.307,0.115 0.614,0.238 0.918,0.367 2.427,1.03 4.542,2.415 6.223,3.994 -0.47,0.274 -0.947,0.545 -1.432,0.811 -3.3,1.809 -6.546,3.162 -9.613,3.87 -0.078,0.019 -0.156,0.037 -0.235,0.054 1.048,1.64 1.975,3.527 2.793,5.615 a 51.074,51.074 0 0 1 1.853,5.777 c -2.362,-0.088 -4.904,-0.65 -7.403,-1.71 -0.25,-0.107 -0.497,-0.217 -0.741,-0.33 0.136,0.298 0.266,0.601 0.39,0.908 0.987,2.444 1.503,4.92 1.576,7.225 a 50.99,50.99 0 0 1 -5.71,-1.836 c -2.087,-0.818 -3.974,-1.745 -5.614,-2.793 l -0.053,0.235 c -0.71,3.067 -2.062,6.313 -3.87,9.613 A 57.93,57.93 0 0 1 44.32,73.288 C 42.712,71.554 41.312,69.36 40.295,66.843 a 23.111,23.111 0 0 1 -0.29,-0.757 c -0.115,0.307 -0.238,0.614 -0.367,0.918 -1.03,2.427 -2.415,4.542 -3.994,6.223 a 57.88,57.88 0 0 1 -0.811,-1.432 c -1.809,-3.3 -3.162,-6.546 -3.87,-9.613 a 24.673,24.673 0 0 1 -0.054,-0.235 c -1.64,1.048 -3.527,1.975 -5.615,2.793 a 51.074,51.074 0 0 1 -5.777,1.853 c 0.088,-2.362 0.65,-4.904 1.71,-7.403 0.109,-0.254 0.22,-0.505 0.337,-0.754 -0.249,0.116 -0.5,0.228 -0.754,0.336 -2.5,1.061 -5.04,1.623 -7.403,1.711 a 51.074,51.074 0 0 1 1.853,-5.777 c 0.818,-2.088 1.745,-3.975 2.793,-5.615 a 24.673,24.673 0 0 1 -0.235,-0.053 c -3.067,-0.71 -6.313,-2.062 -9.613,-3.87 A 57.88,57.88 0 0 1 6.773,44.356 c 1.681,-1.579 3.796,-2.964 6.223,-3.994 0.3,-0.128 0.602,-0.248 0.905,-0.362 a 23.08,23.08 0 0 1 -0.905,-0.362 c -2.427,-1.03 -4.542,-2.415 -6.223,-3.994 0.47,-0.274 0.947,-0.545 1.432,-0.811 3.3,-1.809 6.546,-3.162 9.613,-3.87 0.078,-0.019 0.156,-0.037 0.235,-0.054 -1.048,-1.64 -1.975,-3.527 -2.793,-5.615 a 51.074,51.074 0 0 1 -1.853,-5.777 c 2.362,0.088 4.904,0.65 7.403,1.71 0.25,0.107 0.497,0.217 0.741,0.33 a 23.078,23.078 0 0 1 -0.39,-0.908 c -0.987,-2.444 -1.503,-4.92 -1.576,-7.225 a 50.99,50.99 0 0 1 5.71,1.836 c 2.087,0.818 3.974,1.745 5.614,2.793 l 0.053,-0.235 c 0.71,-3.067 2.062,-6.313 3.87,-9.613 0.278,-0.506 0.561,-1.004 0.848,-1.493 1.608,1.734 3.008,3.928 4.025,6.445 0.101,0.251 0.198,0.504 0.29,0.757 0.115,-0.307 0.238,-0.614 0.367,-0.918 1.03,-2.427 2.415,-4.542 3.994,-6.223 z"
       opacity="1"
       data-original="#365a7c"
       class=""
       id="path3"
       style="fill-rule:evenodd" /><path
       fill="#365a7c50"
       d="m 40,46 a 6,6 0 1 0 0,-12 6,6 0 0 0 0,12 z m 0,2 a 8,8 0 1 1 0,-16 8,8 0 0 1 0,16 z"
       opacity="1"
       data-original="#365a7c50"
       class=""
       id="path5"
       style="fill:none;fill-rule:evenodd" /><path
       fill="#feefd0"
       d="M 46.84,23.35 A 6.0000174,6.0000174 0 1 1 51.529,12.304 6.0000174,6.0000174 0 0 1 46.84,23.35 Z m 9.77,9.713 A 6,6 0 1 1 67.736,28.568 6,6 0 0 1 56.61,33.063 Z M 56.65,46.84 A 6.0000174,6.0000174 0 1 1 67.696,51.529 6.0000174,6.0000174 0 0 1 56.65,46.84 Z m -9.713,9.77 A 6,6 0 1 1 51.432,67.736 6,6 0 0 1 46.937,56.61 Z M 33.16,56.65 A 6.0000174,6.0000174 0 1 1 28.471,67.696 6.0000174,6.0000174 0 0 1 33.16,56.65 Z M 23.35,46.84 A 6.0000174,6.0000174 0 1 1 12.304,51.529 6.0000174,6.0000174 0 0 1 23.35,46.84 Z m 0,-13.68 A 6.0000174,6.0000174 0 1 1 12.304,28.471 6.0000174,6.0000174 0 0 1 23.35,33.16 Z m 9.713,-9.77 A 6,6 0 1 1 28.568,12.264 6,6 0 0 1 33.063,23.39 Z"
       opacity="1"
       data-original="#feefd0"
       id="path6"
       style="fill-rule:evenodd" /><path
       fill="#ffc75e"
       d="m 47.132,12.189 c 0.836,1.922 1.484,3.807 1.906,5.629 l 0.053,0.235 c 1.619,-1.034 3.477,-1.95 5.532,-2.76 a 6,6 0 1 1 -7.491,-3.104 z m 17.579,13.19 c -0.801,2.036 -1.718,3.897 -2.763,5.53 l 0.234,0.053 c 1.822,0.422 3.707,1.07 5.63,1.906 a 6,6 0 1 1 -3.1,-7.49 z m 3.1,21.753 c -1.922,0.836 -3.807,1.484 -5.629,1.906 l -0.235,0.053 c 1.034,1.619 1.95,3.477 2.76,5.532 a 6,6 0 1 1 3.104,-7.491 z M 54.623,64.707 c -2.055,-0.81 -3.913,-1.726 -5.532,-2.76 l -0.053,0.235 c -0.422,1.822 -1.07,3.707 -1.906,5.63 a 6,6 0 1 1 7.491,-3.104 z m -21.755,3.104 c -0.836,-1.922 -1.484,-3.807 -1.906,-5.629 a 24.673,24.673 0 0 1 -0.053,-0.235 c -1.619,1.034 -3.477,1.95 -5.532,2.76 a 6,6 0 1 1 7.491,3.104 z M 15.293,54.623 c 0.81,-2.055 1.726,-3.913 2.76,-5.532 a 24.673,24.673 0 0 1 -0.235,-0.053 c -1.822,-0.422 -3.707,-1.07 -5.63,-1.906 a 6,6 0 1 1 3.104,7.491 z M 12.189,32.868 c 1.922,-0.836 3.807,-1.484 5.629,-1.906 l 0.235,-0.053 c -1.034,-1.619 -1.95,-3.477 -2.76,-5.532 a 6,6 0 1 1 -3.104,7.491 z M 25.377,15.293 c 2.055,0.81 3.913,1.726 5.532,2.76 l 0.053,-0.235 c 0.422,-1.822 1.07,-3.707 1.906,-5.63 a 6,6 0 1 1 -7.491,3.104 z"
       opacity="1"
       data-original="#ffc75e"
       class=""
       id="path8"
       style="fill-rule:evenodd" /><path
       fill="#a06497"
       d="m 36.545,16.045 a 6,6 0 0 1 -11.04,4.574 c 2.058,-0.453 4.49,-0.069 6.897,1.037 0.92,-2.484 2.367,-4.474 4.143,-5.61 z m 6.91,0 c 1.776,1.136 3.223,3.127 4.143,5.61 2.408,-1.105 4.839,-1.489 6.898,-1.036 A 6,6 0 0 1 43.455,16.045 Z m 15.926,9.46 c 0.453,2.058 0.069,4.49 -1.037,6.897 2.484,0.92 4.474,2.367 5.61,4.143 a 6,6 0 0 1 -4.573,-11.04 z m 4.574,17.95 c -1.136,1.776 -3.127,3.223 -5.61,4.143 1.105,2.408 1.489,4.839 1.036,6.898 a 6,6 0 0 1 4.574,-11.041 z m -9.46,15.926 c -2.058,0.453 -4.49,0.069 -6.897,-1.037 -0.92,2.484 -2.367,4.474 -4.143,5.61 a 6,6 0 0 1 11.04,-4.573 z m -17.95,4.574 c -1.776,-1.136 -3.223,-3.127 -4.143,-5.61 -2.408,1.105 -4.839,1.489 -6.898,1.036 a 6,6 0 0 1 11.041,4.574 z m -15.926,-9.46 c -0.453,-2.058 -0.069,-4.49 1.037,-6.897 -2.484,-0.92 -4.475,-2.367 -5.61,-4.143 a 6,6 0 0 1 4.573,11.04 z m -4.574,-17.95 c 1.136,-1.776 3.127,-3.223 5.61,-4.143 -1.105,-2.408 -1.489,-4.839 -1.036,-6.898 a 6,6 0 0 1 -4.574,11.041 z"
       opacity="1"
       data-original="#a06497"
       class=""
       id="path9"
       style="fill-rule:evenodd" /><circle
       style="fill:#ffffff;stroke:#729b8d;stroke-width:0"
       id="path13"
       cx="40"
       cy="40"
       r="19.869898" /></g></svg>
