<?xml version="1.0" encoding="UTF-8" standalone="no"?>
<!-- Created with Inkscape (http://www.inkscape.org/) -->

<svg
   width="210mm"
   height="297mm"
   viewBox="0 0 210 297"
   version="1.1"
   id="svg1"
   xml:space="preserve"
   xmlns="http://www.w3.org/2000/svg"
   xmlns:svg="http://www.w3.org/2000/svg"><defs
     id="defs1" /><g
     id="layer1"><path
       style="fill:#e66b30;stroke:none;stroke-width:1.42735"
       d="M -42.768581,-3.7373882 V 302.32556 H 254.15104 V -3.7373882 H -42.768581 M 253.84805,-3.4250783 V 302.01325 H -42.465602 V -3.4250783 H 253.84805 M 96.601851,34.676635 h -0.30298 l 3.0298,-6.246183 c -4.54634,2.20393 -4.84768,8.365076 -4.84768,12.804674 h -0.30298 l 0.30298,-8.120038 h -0.30298 c -2.069066,4.068826 -2.013524,10.200466 2.72682,11.867748 -1.9e-4,-1.758664 -0.22285,-3.593805 0.22723,-5.309255 0.30958,-1.179929 0.80268,-2.216739 1.62337,-3.109595 6.162219,-6.704125 12.329499,4.151591 4.814949,7.819298 -1.1664,0.5693 -2.3731,0.595967 -3.635759,0.599552 v -0.936929 c 1.326059,-9.13e-4 2.796559,0.151408 3.740949,-1.008256 2.20346,-2.705694 0.33404,-6.751379 -3.13475,-6.103524 -2.836639,0.529786 -4.091329,5.901963 -2.718639,8.259324 1.23639,2.123315 3.955239,2.287609 6.051179,2.287857 v 0.312308 h -0.90894 v 0.312311 c 2.69009,0 5.17848,-0.17127 7.57448,-1.561546 V 46.23207 l -6.36257,1.249238 v -0.312309 c 3.50225,-0.157337 7.85311,-2.221505 9.39235,-5.621565 l -5.75661,3.435402 v -0.31231 c 3.51379,-1.723419 5.84318,-4.772187 6.36256,-8.744656 h -0.30297 c -0.66273,2.002295 -1.6449,3.455548 -3.33276,4.684637 1.52722,-2.311973 2.70029,-4.320823 2.97812,-7.18311 0.20368,-2.098517 -0.40548,-4.195549 0.0517,-6.246182 -5.17112,0.420713 -8.65505,0.519663 -13.02811,3.747711 1.25748,-1.823456 2.88768,-2.606537 4.84767,-3.435401 -3.73433,-1.138126 -7.708769,4.131614 -8.786399,7.18311 m 14.240029,-6.558492 v 0.312309 l -6.66555,1.561545 c 1.31143,-1.83756 4.62214,-2.109116 6.66555,-1.873854 m 1.81787,0 -0.60596,7.495419 h -0.30297 l 0.90893,-7.495419 m -12.11915,2.810783 -0.30296,0.312309 0.30296,-0.312309 M 70.24266,47.481308 h -0.302979 c 0.06435,-3.195736 1.558473,-4.767195 3.332771,-7.183109 -4.611759,2.466086 -8.695193,5.462188 -9.695334,10.930819 6.734639,-1.194567 12.444376,-6.051314 19.693648,-4.684637 l 1.817873,-2.810782 -0.90894,3.4354 c -6.830784,-1.675516 -16.628661,2.123793 -20.437527,8.120037 -2.031036,3.197432 -2.097564,7.087153 -3.910917,10.306202 -1.204373,2.137993 -6.669546,3.773824 -6.72445,5.947368 -0.126794,5.019649 6.489966,2.751099 8.349459,0.923431 -1.711924,2.48271 -4.673619,3.872831 -7.266823,1.750717 -1.144993,-0.937005 -1.602411,-2.459893 -2.731491,-3.312262 0.0072,2.687853 0.605957,5.287907 3.332771,6.246181 -1.547905,2.701521 -3.892646,3.385917 -5.453625,0.312312 h -0.30298 c 0.0023,3.623691 1.454999,7.037439 4.544688,9.056964 0.0013,-2.04078 0.231904,-3.381952 1.514896,-4.996947 -1.122183,3.173833 -0.265097,5.838755 2.423834,7.807728 v 0.31231 l -1.514896,2.81078 c -1.575079,-1.182156 -1.742215,-2.152746 -1.514896,-4.060018 h -0.302979 c -0.873304,2.133858 -0.641195,3.965777 1.514897,4.996947 v 0.312309 l -2.726814,-1.873856 h -0.302979 c 0.113893,3.693005 2.425673,2.529579 4.417979,4.248469 0.927596,0.800309 1.092649,2.219001 2.009344,3.081651 3.432123,3.229738 7.498375,2.044228 11.448449,1.102228 -0.499265,3.23617 -8.765869,4.13512 -11.513208,4.68464 1.281393,4.57096 5.453965,1.08664 8.786397,0.93693 -0.37745,1.67296 -0.715417,4.06225 0.605956,5.30925 v 0.31231 c -0.684208,0.79474 -0.161012,2.88675 0.908939,3.12308 l -0.605959,0.62464 v 0.31231 l 1.514896,1.56154 c -0.198597,1.21577 0.01003,1.66677 1.211917,1.87385 l -0.605958,0.93693 c 1.327068,0.62746 2.519051,0.51256 2.120854,-1.24923 l -1.211916,0.62461 c -0.05969,-1.11468 -0.139885,-1.79789 -1.211918,-2.18616 l -0.605958,-4.06002 h -1.211917 v -0.31231 l 0.605959,-8.43235 h 0.302979 c -0.418612,2.13513 -0.481181,7.67098 2.423833,7.80773 0.07982,1.91487 2.093339,2.98082 3.635752,3.74772 v -2.18618 l -1.514897,0.31231 c -0.219051,-1.31248 -0.897954,-1.64281 -2.120855,-1.87385 0.05759,-1.27446 -0.447276,-2.43972 -1.514896,-3.1231 l 0.605959,-8.43234 c 3.904741,3.27734 7.601099,6.92745 12.422148,8.72777 1.471411,0.54948 3.37341,1.54828 4.847665,0.95382 l -0.908942,4.06001 h 1.514902 l -0.30298,-1.87385 c 0.909295,-0.61455 1.048978,-1.08205 0.908941,-2.18616 3.823869,-4.5e-4 8.384499,-1.23474 11.456168,1.93264 4.21353,4.34483 0.44371,14.40505 -5.093609,15.55667 l 0.60596,-1.87386 -1.81788,0.62461 c 0.38601,-1.34434 2.40306,-3.22814 -0.30298,-3.12309 l 0.30298,1.24925 -1.81787,0.62461 0.60596,-1.87386 -0.90894,0.93694 -1.514901,-0.62463 -0.60596,1.87386 h -0.302968 l 0.302968,-2.18617 -1.817869,1.24925 h -0.30298 l -0.908942,-1.87386 -2.120849,2.49847 3.332771,-0.62461 h 0.30298 c 0.237277,1.4227 1.150824,1.80595 2.42383,2.18617 v -1.24925 c 0.669779,0.4118 0.95747,0.68856 0.30298,1.24925 l 1.21192,1.24923 0.30298,-1.24923 1.51489,1.24923 h -1.21191 c 0.85432,5.29069 -4.041132,8.92129 -8.786402,9.80159 -6.06683,1.1255 -12.639531,-3.16117 -16.966831,-7.0802 -1.389205,-1.25814 -3.916088,-3.51172 -4.163867,-5.53218 -0.142575,-1.16258 0.762357,-2.38089 1.134073,-3.43538 l -0.908938,-0.31231 v -0.62463 l 0.908938,-0.31231 0.302979,0.93694 c 1.048881,-0.82594 1.427558,-1.44741 1.211918,-2.81079 h -0.605958 l -0.302981,0.93692 h -0.302979 v -1.24923 l -1.211917,2.18616 -0.605957,-0.62462 H 62.97116 c -0.620096,1.39244 0.05422,2.1223 0.605958,3.43539 l -6.968523,-4.15399 -5.734625,-8.01375 -5.475605,-5.63387 7.574481,4.37233 c -1.12541,-2.98579 -5.340462,-4.32743 -8.180438,-4.99695 l 1.514896,3.74771 -9.695335,2.49847 c 0.472167,-0.96848 1.690251,-4.4899 -0.624663,-4.22677 -0.940873,0.10688 -1.60881,1.27097 -2.405129,1.7283 0.08537,3.77796 -0.439121,3.59728 -2.120853,0.3123 h -0.605959 l 0.302979,3.74772 -1.211917,0.31231 -2.120855,-2.49848 c -0.233239,1.27157 -0.538409,2.03441 0.605959,2.81078 -2.843689,1.29769 -6.066515,1.89352 -9.089375,2.60739 -1.942846,0.45883 -3.506753,0.30175 -3.63575,2.70188 h -0.302982 v -1.87386 c -1.832237,0.40312 -1.813154,1.73897 -1.817874,3.43541 h -0.30298 c -0.0074,-0.64936 0.128595,-1.7239 -0.485794,-2.1493 -1.046345,-0.72452 -7.2861643,1.10066 -8.1175493,2.04084 -2.6563174,3.00392 2.749372,2.68192 4.058655,2.29462 1.3056293,-0.38621 2.5822263,-0.81499 3.9387313,-0.93692 l 0.605957,23.11087 h 0.605959 L 13.58555,121.18627 h 0.908938 v 15.30314 l 0.30298,7.80774 c 1.202461,-1.81433 0.605956,-5.05112 0.605956,-7.18312 v -17.177 l 5.453628,-1.11765 12.119167,-3.25467 v 0.31231 c -1.795744,0.24945 -6.853158,0.92095 -7.84169,2.65439 -1.546514,2.71191 3.415677,9.06027 4.811898,11.08722 H 28.73451 v -1.24925 c -2.112329,0.72541 -0.388899,2.21438 1.211917,1.87385 1.423733,6.19288 6.857169,15.51119 13.331085,16.96326 3.867098,0.86739 10.937023,-4.01234 11.806369,-7.9063 0.425519,-1.90595 -0.523565,-3.90756 -1.202098,-5.62156 h 0.30298 c 0.731227,1.81283 1.729897,3.60331 1.778366,5.62156 0.167781,6.98631 -5.335395,14.03124 -6.323054,20.92472 h 0.302979 l 4.241709,-10.61851 h 0.302979 c -2.783686,13.86506 -9.772401,27.93429 -16.784954,39.97557 -3.048326,5.23431 -6.403681,11.25857 -11.69509,14.36622 v 0.31231 l 6.059582,4.37233 c 5.610082,-10.99061 10.841141,-22.05966 15.712609,-33.41708 2.785054,-6.49315 6.299874,-13.84789 7.313811,-20.92472 h 0.30298 c -1.214626,8.50949 -4.821354,16.29358 -8.152617,24.04781 -2.976396,6.92818 -5.542972,14.03199 -8.604756,20.92471 -1.765096,3.97361 -4.193162,7.97395 -5.360109,12.18006 l 5.756606,2.81079 5.974722,-21.86165 4.32657,-14.67852 h 0.302979 l -6.783367,28.73244 -1.07889,7.49542 0.0052,2.57894 6.039242,1.48106 c -0.337273,-16.84054 3.165407,-32.67152 6.93346,-49.03253 1.521563,-6.60666 3.935089,-13.24634 4.795057,-19.98777 0.962768,-7.5473 -0.517492,-14.70493 -0.518285,-22.17395 6.079786,6.84401 13.292176,16.1191 23.329397,16.23888 5.912497,0.0706 15.958562,-4.4772 14.543002,-11.55426 h 0.30297 l 1.51491,3.12309 -0.90894,2.18617 c -1.69012,0.0742 -2.68941,1.56254 -3.93874,2.61849 -1.829586,1.54641 -3.81999,2.89751 -6.059579,3.72192 -7.920552,2.9157 -13.568894,-2.47281 -20.299603,-5.71578 2.089981,6.49089 12.184307,9.71746 16.966832,13.84304 4.340001,3.74385 3.934657,7.86248 -0.908936,10.82938 0.916756,3.2612 2.913222,2.31277 5.453628,1.4584 4.169948,-1.4024 8.714728,-3.86806 11.269607,-7.70459 1.95844,-2.94086 -0.785619,-6.84467 -1.183619,-9.99388 -0.3389,-2.68159 -0.14487,-5.52744 0.56528,-8.12005 0.578059,-2.11047 1.690589,-3.98808 1.467899,-6.24619 l -1.514899,3.12309 h -0.30298 l -1.81788,-6.24617 2.12086,3.74771 c 6.260389,-4.76337 9.548259,-16.71756 2.726579,-22.3366 -3.592029,-2.95879 -9.038889,-2.99627 -12.421906,-6.08354 4.696187,2.04265 8.271327,-0.96647 11.817356,-3.58866 3.55365,-2.627822 6.29666,-4.40826 3.63458,-9.216016 3.67079,-1.290961 5.47699,-4.794813 3.33278,-8.432343 3.90761,-0.95719 5.17808,-4.34629 3.93872,-8.120039 h -0.30298 c 0.0546,3.744107 -3.50776,3.559568 -4.84767,0.624618 3.72801,-0.923793 4.57265,-4.287941 3.93874,-7.807727 h -0.30298 v 0.936927 h -0.30298 l -2.42383,-7.807727 2.42383,4.684636 h 0.30298 c 0.21622,-3.155001 -0.38942,-5.846667 -2.7315,-8.08727 -1.85352,-1.773226 -4.44395,-1.667397 -4.54001,-4.717405 l -0.60595,0.31231 c 0.65089,-3.052563 -0.92798,-3.477414 -3.332779,-4.977923 -3.5318,-2.203718 -9.428842,-5.036041 -13.634058,-3.766732 l 0.908928,-0.624618 c -0.659389,-3.366436 -4.027635,-4.445735 -6.968517,-4.367754 -4.897252,0.129871 -8.923638,3.954034 -9.998313,8.740081 m 40.296249,-6.870801 -0.60597,0.624619 0.60597,-0.624619 m -24.238347,3.747709 v 2.810783 h -0.908942 l 0.908942,-2.810783 m 21.511507,0.62462 -0.30297,0.312308 0.30297,-0.312308 m -19.087677,0.312308 -0.302981,2.186164 h -0.60596 c -0.427554,-1.176802 -0.29273,-1.791299 0.908941,-2.186164 m 2.72681,1.249237 c -0.990324,2.647193 -2.641631,-0.620044 0,0 m 2.423828,1.873855 c -1.22763,0.185166 -1.694534,-0.296088 -1.51489,-1.561546 l 1.51489,1.561546 m 1.81788,1.561545 -1.5149,-0.62462 c 0.55261,-1.857555 1.87913,-1.059017 1.5149,0.62462 m 2.12086,-1.249236 0.30298,2.186163 c -1.32939,-0.505595 -1.63876,-1.420888 -0.30298,-2.186163 m -18.481733,0.936926 c 3.642628,3.754762 6.717568,6.278341 11.210224,8.744656 v 0.31231 c -3.823447,-1.282407 -6.905343,-2.591076 -9.49388,-5.933874 -0.703394,-0.908355 -1.754243,-1.938037 -1.716406,-3.123092 m 20.602575,0.624619 -0.30298,1.561547 h -0.60595 l -0.30298,-1.249238 1.21191,-0.312309 M 73.57543,50.604399 v 0.312309 c -5.233722,1.564215 -8.671466,5.366288 -10.301292,10.61851 -2.037852,-5.383882 5.988804,-10.893552 10.301292,-10.930819 m 28.78302,0 -1.51489,1.873855 1.51489,-1.873855 M 52.063907,65.595238 c -0.781858,4.307383 4.450526,3.221926 6.262742,1.195022 2.049936,-2.292775 1.864607,-5.596153 2.843002,-8.378133 0.945607,-2.68873 2.673786,-4.287711 4.225341,-6.55849 -4.672497,0.721927 -8.341811,5.286112 -8.998438,9.993892 -0.201115,1.441893 0.775034,4.001708 -0.02244,5.185866 -1.469366,2.181838 -3.417123,-0.140641 -4.310204,-1.438157 m 26.662169,-13.429294 -0.302979,0.31231 0.302979,-0.31231 m 0.30298,0.624619 1.211917,2.810783 h -0.302979 l -0.908938,-2.810783 m -3.93873,1.249237 c -0.269616,6.471759 -1.814569,12.034367 -7.877455,14.990837 l 5.201611,-6.246183 2.675848,-8.744654 m 3.938731,2.186163 c 1.102562,2.388466 3.089679,4.383079 5.453629,5.456507 1.278106,0.580377 2.794274,0.609828 3.90693,1.548528 2.241058,1.890686 2.931717,4.614642 5.788398,6.009529 2.02316,0.987899 5.904119,-0.06534 7.238529,1.710229 2.55697,3.402385 0.74473,8.504341 -0.27001,12.133791 -2.626179,9.393122 -6.537889,19.350273 -17.875769,19.354023 -5.112856,0.002 -10.468222,-3.212555 -13.932603,-6.861906 -1.141961,-1.202936 -2.318455,-4.270442 -3.749128,-4.941762 -0.642498,-0.301481 -1.189283,0.261053 -1.266155,0.900539 -0.142844,1.188334 1.017765,2.146705 0.538387,3.370589 -0.846009,2.159894 -4.634247,0.04566 -2.496064,-2.139899 0.53012,1.053679 1.149966,1.458575 1.817876,0.312309 l -1.211922,-0.312309 c 0.539348,-2.834724 -6.207356,-8.223828 -2.423835,-10.61851 0.494709,2.620506 1.338636,4.833128 4.241709,4.996945 v -5.933873 h 0.302979 l 2.423836,2.498472 c -2.61638,-3.4102 -2.811871,-6.552411 -1.514669,-10.618509 0.303387,-0.950976 0.527857,-2.447063 1.366208,-3.068383 2.471249,-1.831481 5.62738,-1.086165 7.926326,-3.814941 2.578662,-3.060778 2.255839,-6.584206 3.735341,-9.981369 m 56.051143,2.186164 c 5.0095,-0.221689 9.09039,-0.375842 13.93706,1.249237 v 0.312307 c -4.01639,-1.323843 -15.07865,-3.728895 -16.96685,1.873858 4.62605,-1.135268 8.40013,0.654506 12.72514,1.873854 v 0.312308 c -3.14281,-0.884259 -12.88021,-4.714621 -13.93706,0.624618 6.88484,0.304667 12.33253,2.968404 16.8759,8.432347 6.34029,7.624962 8.83927,17.22254 18.87565,20.924716 0,-13.065788 -2.04272,-28.088897 -14.24003,-35.06248 -4.04477,-2.312525 -13.79018,-5.066101 -17.26981,-0.540765 m -7.57449,1.561544 c 2.46359,-0.672137 5.99037,-0.496197 7.27151,-3.123089 -2.46716,0.524925 -5.64111,0.9964 -7.27151,3.123089 m -36.761455,-0.728714 -0.100983,0.208194 0.100983,-0.208194 m 41.003175,0.104092 c -3.10563,1.085839 -6.3885,1.447213 -8.48341,4.372329 2.33047,-0.68516 9.06652,-0.760948 8.48341,-4.372329 m -23.63236,0.312309 0.30296,0.624619 -0.30296,-0.624619 m -16.96685,0.312309 c 1.961801,3.3192 5.024891,8.750432 9.69535,6.471741 1.72875,-0.843448 2.12807,-2.888037 3.63574,-3.660958 -0.90088,2.215156 -2.38617,4.231118 -4.847679,4.61813 -3.56768,0.560932 -9.156303,-3.264492 -8.483411,-7.428913 m 58.17201,0.104093 c 0.23432,0 0.0485,0.155487 -0.10097,0.104125 l 0.10097,-0.104125 m 0.90894,0.208213 -0.30298,0.312309 0.30298,-0.312309 m -55.445199,1.873855 c 3.17349,1.721169 5.00594,2.207475 8.483429,1.249234 v 0.31231 c -2.30476,1.350457 -7.595559,2.099223 -8.483429,-1.561544 m 22.420459,13.116986 c 2.07582,-1.567321 3.10512,-4.927998 5.15089,-6.816588 2.38752,-2.204082 7.09446,-2.349752 7.87721,-5.675775 -6.70233,0.142597 -12.43055,5.438379 -13.0281,12.492363 m 27.87409,-11.243128 1.21191,0.624618 v 0.312309 l -1.51488,-0.624618 0.30297,-0.312309 m -59.08094,1.561547 c -0.870394,2.6503 -1.148622,5.956728 -0.877139,8.744407 0.12999,1.334691 0.88124,2.692179 2.388536,2.349562 2.449316,-0.55674 4.285194,-6.820477 2.124355,-8.283188 -0.119082,0.950405 -0.293794,1.881365 -0.524604,2.810782 l -0.455875,1.873855 c -0.312256,1.232442 -2.007463,3.499926 -2.295486,0.93403 -0.286858,-2.555564 1.283472,-6.19361 -0.359787,-8.429448 m 44.23495,1.249236 c 5.24203,1.003795 9.64959,2.318014 13.63407,6.246182 -4.25149,-2.862117 -8.40649,-5.294386 -13.63407,-5.309256 0.22489,2.909162 6.81742,4.102243 9.08938,5.442765 6.22629,3.673691 12.8274,11.278221 11.72523,19.229655 -0.9533,6.877743 -5.35153,13.548535 -12.33118,14.845755 -7.8161,1.45271 -17.38485,-6.25199 -16.0579,-14.845755 2.37897,1.200134 4.13258,0.578528 6.36255,-0.624616 v -0.936928 c -2.53673,-0.953016 -4.56897,-0.532111 -6.96851,0.624619 l -2.42383,-8.120038 4.58115,-9.056963 4.81119,-5.933875 c -6.46123,1.923071 -11.56697,12.844646 -12.11915,19.363166 h 0.30297 l 2.12086,-4.372328 h 0.30298 c -0.37583,1.416408 -0.93258,2.766064 -1.60865,4.060018 -2.21701,4.243087 -9.44554,15.88068 -0.20923,17.80163 v -0.31232 c -5.05619,-3.75121 -3.48016,-9.845052 0,-14.053909 l 0.8699,12.492369 -0.26393,14.36622 c 4.33488,-1.72816 7.19787,-4.96648 12.11915,-5.62157 v 3.43541 l -0.60595,1.24924 h 1.5149 v -5.62157 h 0.30297 v 1.56154 h 0.90894 l 1.21192,-3.7477 6.96851,5.09984 3.33279,1.47696 6.36256,-3.76602 v 0.3123 l -10.60428,7.49543 c -0.30497,-1.46701 -1.28741,-0.59649 -2.12086,0 l 0.30298,-0.93693 h -1.21191 l -2.72681,-2.81078 -1.21192,0.62462 0.90894,1.56154 1.21191,-0.31231 -0.30298,1.87386 0.60596,-0.93693 h 1.5149 v 1.24924 l 3.02979,-0.31231 c -7.01919,7.08612 -19.13849,13.20732 -20.60258,24.36011 2.70887,-1.42756 4.21504,-5.84231 6.36699,-8.12004 5.51953,-5.842 11.5821,-10.96799 17.56836,-16.28079 3.19561,-2.83612 6.44157,-6.53096 10.60426,-7.76701 v 0.3123 c -5.36285,2.61514 -8.88578,8.62967 -12.24773,13.42929 -4.5997,6.56668 -8.85409,13.33875 -13.33437,19.9878 -2.85478,4.23669 -6.38479,8.53271 -8.65453,13.11698 3.64258,-2.11472 6.35891,-7.13583 8.68305,-10.61851 5.08276,-7.61646 9.87323,-15.42214 14.84834,-23.11088 2.97766,-4.60182 7.10461,-10.56796 12.52312,-12.18006 v 0.31231 c -4.59523,2.25387 -7.65644,8.21906 -10.31648,12.49236 -6.37385,10.23937 -11.59403,21.26431 -18.38191,31.23092 -3.32807,4.88657 -9.37216,9.83085 -10.99187,15.61545 2.12188,-1.60986 3.71447,-4.02866 5.54129,-5.98691 8.97505,-9.62061 14.98215,-21.98463 21.03181,-33.67634 3.16307,-6.11301 7.08627,-15.8889 14.0261,-18.11393 -5.35706,5.27027 -8.46578,11.92019 -11.60977,18.73854 -4.41641,9.5779 -8.63019,19.4878 -14.20938,28.42013 -3.04261,4.87126 -7.10422,8.96552 -10.65523,13.42929 -1.59789,2.00861 -3.69776,4.0239 -4.4278,6.55849 l 5.88518,-5.93386 11.08165,-14.67852 c -0.13131,3.10693 -1.63575,5.71258 -2.95499,8.43233 -2.8083,5.78953 -6.26914,11.0755 -9.59573,16.55238 -1.55318,2.55716 -3.6054,5.08062 -4.11313,8.12005 4.161,-2.4817 7.22017,-9.88134 9.63455,-14.05392 8.33462,-14.40412 13.55133,-31.01652 20.40995,-46.22175 2.97807,-6.60223 7.19687,-19.48863 15.70536,-19.67547 -1.37024,1.28784 -3.12411,2.01359 -4.38877,3.48866 -6.89438,8.04143 -10.21874,19.81855 -14.03242,29.6161 -4.39759,11.29762 -9.20073,22.52737 -14.48292,33.41708 -2.61061,5.38199 -5.45552,10.70071 -8.34666,15.92777 -1.28064,2.31533 -3.44358,5.36922 -3.28718,8.12004 5.27106,-4.82611 8.24397,-14.20194 11.3423,-20.61242 8.63275,-17.86129 15.21742,-36.52748 23.29084,-54.65408 2.16999,-4.8721 5.2619,-10.92974 9.90481,-13.69967 4.78407,-2.85415 6.76602,5.08208 6.36256,8.39041 h -0.30298 c -0.11655,-5.82062 -3.1488,-6.80334 -6.82779,-2.18615 -5.5702,6.9907 -8.38051,16.45628 -11.78158,24.6724 -6.19166,14.95749 -12.23681,29.81079 -19.33807,44.34791 -3.97144,8.12999 -12.00122,17.0113 -10.83221,26.54626 h 0.30298 l 8.18042,-16.55237 c 1.30126,5.63404 -0.39917,13.40703 -1.38631,19.05084 -1.94966,11.14683 -4.01432,22.06924 -6.49113,33.10477 l 4.24171,1.24925 c 2.43821,-12.95979 3.34237,-26.22231 4.21459,-39.35096 0.46425,-6.98813 -0.60838,-14.43922 3.05691,-20.6124 0.67586,13.28592 -0.35368,27.41213 -1.90438,40.60021 -0.78113,6.64301 -2.5068,13.63215 -2.64031,20.30007 l 5.45362,0.62462 c 0,-14.66117 0.30298,-29.3552 0.30298,-44.03559 0,-7.46141 -1.28834,-16.1594 1.5149,-23.11088 1.76519,4.3121 0.90893,11.55144 0.90893,16.24006 v 34.35403 c 0,3.96615 -0.30297,7.89403 -0.30297,11.86775 0,1.08253 -0.44579,3.55588 0.4858,4.31641 1.07193,0.87515 3.66761,0.36822 4.96782,0.36822 -0.0402,-5.00196 -1.14866,-10.00317 -1.48779,-14.99083 -0.8569,-12.60278 -1.92676,-25.16957 -2.46288,-37.78942 -0.1673,-3.93889 -0.35968,-7.93254 -0.62112,-11.86773 -0.16414,-2.47051 -0.64053,-4.93127 1.23902,-6.87082 0,18.25825 1.70477,37.1002 3.3842,55.27872 0.30715,3.32474 0.60882,6.66184 0.8304,9.99389 0.10432,1.56777 -0.20434,3.76593 0.51173,5.20974 0.76008,1.53253 4.94674,-0.004 5.51487,-1.21985 0.63728,-1.3631 -0.50009,-4.14936 -0.81284,-5.55143 -1.06206,-4.76125 -2.09452,-9.55858 -2.93723,-14.36623 -2.15739,-12.30817 -3.56483,-25.01453 -4.39738,-37.47708 -0.34393,-5.1481 -1.82933,-11.51678 -0.57886,-16.55239 h 0.30298 c 0.34659,8.29997 3.43407,17.04747 5.62897,24.98474 4.05743,14.67274 8.37417,29.00979 14.06467,43.09864 h -0.30297 c -1.39062,-3.4429 -3.45584,-6.56118 -4.88624,-9.99387 -3.65465,-8.7706 -6.66162,-17.91176 -8.90727,-27.17091 -0.90395,-3.72717 -1.5544,-7.51485 -2.45421,-11.24312 -0.34255,-1.41936 -0.45302,-3.45442 -1.62805,-4.37233 0.11023,13.73139 3.03652,27.71315 5.22545,41.22481 0.62477,3.85646 1.24173,7.72146 1.9855,11.55542 0.28395,1.46359 0.32437,3.61843 1.10064,4.8977 0.8568,1.41196 4.61144,0.79107 5.92844,0.43518 4.05035,-1.0945 7.99185,-3.76661 11.5132,-6.0175 1.63294,-1.04378 3.54729,-2.06195 4.24171,-4.00001 4.04853,1.13542 9.85386,-5.1603 12.42216,-7.80773 -2.61235,3.86824 -6.71322,6.62288 -10.90727,8.43235 0.40956,1.20231 0.89344,1.67407 2.12086,1.87385 v 0.31231 c -8.50397,4.16524 -14.5018,10.93083 -24.5413,10.93083 0.17685,3.92091 4.35726,3.32574 7.27148,2.65027 2.39738,-0.55565 3.94058,-2.13367 6.00817,-3.30744 3.81377,-2.16507 11.41057,-2.89439 12.17058,-8.71212 8.23979,1.84684 13.59975,-10.44401 17.87578,-15.61544 l -6.36257,9.36926 c 2.32199,0.54685 3.75434,-1.78803 5.07491,-3.43538 2.7385,-3.41618 8.1218,-9.5066 6.74129,-14.36623 -2.28479,1.22361 -4.05779,6.05048 -5.15064,8.43235 h -0.30299 c 0.97848,-2.15779 3.99407,-5.89159 3.59577,-8.39067 -0.16852,-1.05731 -1.7042,-1.51163 -2.43154,-0.78559 -1.06626,1.06434 -1.78503,3.69485 -2.37614,5.11624 h -0.30298 c 0.77189,-1.91363 3.0398,-5.48635 0.60596,-6.8708 -2.65183,5.12738 -5.13294,10.10449 -9.08937,14.36621 l 6.69569,-9.99388 1.24931,-4.35979 -4.30927,-3.54747 -10.90723,-8.33282 7.57448,4.37232 c -3.28304,-8.92828 -11.68292,-13.91715 -17.87578,-20.30008 l 8.78639,5.30926 c -0.31582,-2.20441 -1.01406,-5.9141 -2.37638,-7.68581 -2.14745,-2.79274 -7.40957,-4.6562 -10.34874,-6.58523 -6.24229,-4.09687 -13.27888,-9.77676 -15.75492,-17.27219 2.69656,1.48362 4.65252,4.58882 6.69147,6.87078 5.08696,5.69319 10.60566,12.23635 17.84985,14.99085 -0.0671,-8.34844 -4.6094,-16.18871 -6.79857,-23.99477 -0.39944,-1.42431 0.19261,-2.90453 -0.27868,-4.42535 -0.95282,-3.07469 -2.37194,-6.77225 -5.95087,-7.18311 -1.00421,3.657 -7.05699,5.55408 -10.30129,6.24619 2.20127,-2.15492 7.29294,-1.91915 8.74969,-5.0548 0.57914,-1.24658 -0.55442,-3.32595 -0.73805,-4.6268 -0.36716,-2.60109 0.40184,-5.78217 1.98667,-7.80773 l -0.90894,9.05697 5.45364,1.56154 c -0.46487,-2.01738 -3.25075,-5.84728 -2.42922,-7.80773 1.04375,-2.49067 4.83392,-4.62654 6.9739,-6.02906 0.82924,-0.54348 2.87381,-1.2276 3.01858,-2.38953 0.2067,-1.65924 -2.5292,-0.18793 -3.01858,0.083 -2.66392,1.47425 -5.09053,3.37353 -7.27151,5.52492 2.3606,-3.45429 6.26627,-5.62835 9.69535,-7.80774 l -0.30298,-1.24923 c -3.4375,1.39628 -6.61179,3.43776 -9.39237,5.93387 2.14976,-3.00866 5.9416,-4.85695 9.08939,-6.55848 l -3.0298,-9.99389 h 0.30299 c 1.61117,4.9511 3.79355,9.74578 5.46438,14.67852 1.49575,4.4159 2.65944,8.88606 5.79843,12.49214 3.54757,4.07543 11.46793,4.36339 15.09638,2.2e-4 -1.59306,0.44806 -3.1592,1.25744 -4.84768,1.20877 -11.25237,-0.32443 -8.08152,-16.71887 -8.83898,-24.00731 -0.22894,-2.20313 -1.18435,-4.15148 -1.76527,-6.2462 5.14219,6.45125 -0.0265,15.10558 4.43503,21.54933 3.2264,4.65969 10.8971,6.29681 14.83734,1.53239 2.49003,-3.01087 2.1344,-8.73564 -2.00256,-10.07316 -1.51011,-0.48826 -3.56964,-0.29641 -4.72075,0.89956 -1.27834,1.32821 -1.42579,3.88199 0.47903,4.51811 0.0811,-3.4615 3.76497,-5.20764 5.75379,-1.86901 1.63023,2.73661 -0.84609,5.57419 -3.32995,6.44016 -3.03071,1.0566 -6.10932,-0.1568 -8.06215,-2.69848 -2.65167,-3.45127 -1.20656,-7.61365 -1.03916,-11.55424 0.17332,-4.07994 -0.6084,-6.90345 -2.10892,-10.61851 5.1161,4.30651 5.80063,8.46128 3.33276,14.36621 5.85124,-4.45206 4.21991,-13.16165 -0.90894,-17.32759 -3.26346,-2.65078 -7.52189,-3.556 -10.60427,-6.4079 5.41754,2.93771 12.05463,2.39001 14.84598,9.05697 h 0.30298 c 1.17336,-8.05116 -12.31252,-8.41742 -16.36087,-12.49237 2.51198,0.87599 4.8553,1.9454 7.57449,1.41552 3.79938,-0.74038 5.72991,-4.91559 3.43821,-8.285111 -1.87919,-2.763002 -6.85095,-3.228416 -7.07398,0.935724 h 0.30298 c 3.01465,-3.771046 7.30047,1.691007 3.62245,4.291127 -5.65487,3.99761 -8.4754,-4.479 -11.39002,-7.230354 -1.73798,-1.640611 -5.53428,-1.863345 -7.68437,-3.339724 -4.77019,-3.275511 -8.66707,-9.918483 -10.90724,-15.27038 h 0.30298 c 4.49665,9.800319 13.34285,21.930588 25.14727,16.240072 -1.51605,-0.356984 -3.24697,0.489431 -4.84767,0.387259 -2.68892,-0.171627 -5.38847,-1.8387 -7.57448,-3.360464 -7.89246,-5.49429 -10.03283,-16.158263 -17.5728,-22.042842 -2.6951,-2.103396 -6.27279,-3.860554 -9.69532,-4.016404 -1.4539,-0.0662 -3.02069,-0.340235 -3.63576,1.236941 M 64.38506,66.11584 64.284077,66.324034 64.38506,66.11584 m 52.81937,17.593407 h 0.30298 c 1.82527,-4.224656 3.15413,-8.613318 6.15054,-12.178855 1.64952,-1.962853 5.26285,-2.95609 5.66564,-5.622765 -8.44138,0.710777 -12.11916,10.218156 -12.11916,17.80162 M 64.183077,66.844473 61.759243,72.466037 h -0.302979 l 2.726813,-5.621564 m 6.968521,6.870801 c 4.001723,-1.537528 6.338644,-0.409374 10.301292,0 -1.525334,-3.292397 -9.067471,-3.917435 -10.301292,0 m 59.686892,-0.624618 c 0.0439,2.192645 0.56294,4.36947 0.58936,6.558492 0.007,0.593584 -0.0195,2.121581 -0.8935,2.121581 -1.82134,0 -1.82321,-6.771755 -2.11968,-8.055455 h -0.303 c -0.28977,1.254632 -0.3049,2.462028 -0.30298,3.747711 0.001,0.945617 -0.001,1.883918 0.2062,2.81078 0.38707,1.725879 2.4192,4.572038 4.00841,2.139901 1.3731,-2.101395 0.88274,-7.864323 -1.18481,-9.32301 m 13.3311,0 3.93872,5.309254 h -0.30298 l -3.63574,-5.309254 m -51.506469,3.123091 7.877469,2.498472 c -0.611879,-3.472073 -5.468719,-5.185258 -7.877469,-2.498472 m -21.511523,3.435401 v 0.624617 c 3.248196,2.049205 5.359971,2.752625 9.089375,1.873856 -1.154174,-4.238152 -5.965836,-4.304163 -9.089375,-2.498473 m 64.837532,1.873854 9.08939,-0.312309 c -1.55046,-2.815795 -8.09441,-3.151722 -9.08939,0.312309 m -80.59245,-0.312309 -0.30298,0.312309 0.30298,-0.312309 m 52.11241,0.624619 c 0.79216,2.575882 1.12091,4.800074 -0.30298,7.183108 h -0.30298 l 0.60596,-7.183108 m -16.96683,1.561545 v 0.624617 c 2.685661,1.692463 5.241411,2.524931 8.180441,0.936929 -1.68846,-3.324633 -5.37868,-3.440377 -8.180441,-1.561546 m 30.90389,2.186163 5.45362,-1.561546 c -1.45763,-2.863068 -4.94125,-1.048572 -5.45362,1.561546 m 15.45193,4.06002 c 3.54585,0.461925 7.59869,0.830198 9.39235,-3.123091 -3.16711,0.0023 -7.32202,0.366348 -9.39235,3.123091 M 83.270766,89.01842 c 0.561584,1.688842 3.024593,2.210429 3.635755,0.31231 l -3.635755,-0.31231 m -25.147274,0.936929 -0.302979,0.936925 h -0.302979 l 0.605958,-0.936925 m -0.605958,1.249237 -0.30298,0.312308 0.30298,-0.312308 m 21.814503,0 c 1.818171,3.508345 6.325333,4.438399 9.089374,1.561545 l -4.241712,0.117844 -4.847662,-1.679385 m 24.844293,0.624618 c 1.65354,1.427349 2.00653,3.782328 -0.30297,4.684633 l 0.30297,-4.684633 m 51.80943,2.498474 0.30298,3.435399 h -1.21192 l 0.90894,-3.435399 m -24.23833,1.56155 c 0.57517,1.870994 2.16036,1.413527 3.02979,0 h -3.02979 m -32.721749,0.62462 c 2.256549,2.957708 -1.85856,4.285298 -1.81787,1.561539 1.58735,0.568514 1.64352,-0.09298 1.81787,-1.561539 m 32.418779,2.810779 c 1.62374,2.864919 5.9055,0.767119 6.96851,-1.56155 l -6.96851,1.56155 m 26.35918,-0.31231 v 1.873849 c -1.8158,0.66262 -3.77199,0.76071 -4.24172,-1.561539 1.87728,0.681369 2.49519,0.642535 4.24172,-0.31231 m -95.438438,1.041019 0.100994,0.10413 c -0.149522,0.0513 -0.335332,-0.10413 -0.100994,-0.10413 M 47.8222,101.8231 c 0.382191,2.53029 5.432387,5.72559 7.57448,6.87081 -0.922317,-3.20083 -4.542229,-5.95107 -7.57448,-6.87081 m 3.938728,0 v 0.31231 l 6.059585,5.62157 c -0.329793,-3.30107 -2.921575,-5.64969 -6.059585,-5.93388 m 71.503092,1.24923 1.51488,1.56155 h 0.30298 l 1.51491,-0.93693 c -0.53339,2.63664 -3.63321,1.69818 -3.33277,-0.62462 m -96.347385,9.9939 -2.120855,-8.12004 c -3.260914,1.76267 -2.741805,9.81627 2.120855,8.12004 m 142.703205,-8.12004 0.60595,0.93693 -0.60595,-0.93693 m -79.07758,0.31231 -1.211909,1.24924 1.211909,-1.24924 m -0.302968,2.18616 -0.908941,-0.62461 0.908941,0.62461 m 29.691958,0.62462 0.60595,5.93387 h -0.30298 l -0.30297,-5.93387 m -31.206859,0.93692 v 0.62463 h -0.605962 v -0.62463 h 0.605962 m 82.713309,0 -0.30298,0.31231 0.30298,-0.31231 m -39.08431,1.56155 v 0.62462 h -0.60596 l 0.60596,-0.62462 m -47.264751,1.87386 h -1.817873 v 1.24923 l -3.332772,0.31231 -1.817874,1.24925 -0.908939,-1.24925 c -0.963397,0.33085 -1.546386,1.44045 -0.258097,1.97241 2.017334,0.833 8.173279,-1.0826 8.135555,-3.53395 1.176539,0.0926 1.687234,-0.091 2.12085,-1.24924 -1.210542,-0.20571 -1.756545,0.0149 -2.12085,1.24924 m -26.662167,12.18006 v 3.4354 c -1.533269,-0.49883 -1.698156,-1.92651 -1.817877,-3.4354 l -3.938728,3.4354 c 1.996207,2.95584 6.140312,6.69505 4.544687,10.61851 h -0.302979 c -0.0035,-5.28358 -3.685106,-10.54208 -8.786396,-11.86774 l -0.302979,-2.18617 -0.302979,1.87384 -2.120856,-0.93692 c -0.246604,2.27017 1.521314,1.6187 3.029792,2.58523 2.234907,1.43197 4.351175,2.9851 5.453626,5.53481 l -7.2715,-5.93387 3.503428,4.68559 -1.079595,4.996 h -0.30298 c -2.277715,-3.54459 -5.239732,-6.11333 -8.180438,-9.05214 -1.217694,-1.21693 -2.958586,-2.16334 -3.189464,-4.0651 -0.259559,-2.13798 1.12932,-6.44228 1.967266,-8.43209 0.207476,-0.49271 1.714679,-2.42649 0.754867,-2.78381 -0.810289,-0.30164 -1.741353,0.71577 -2.227683,1.23597 -2.090307,2.23601 -3.152901,4.14745 -5.788404,5.92017 l 2.726815,-5.30926 c 1.348083,-0.71996 2.447825,-2.26345 3.938729,-2.6368 1.678582,-0.42033 3.290349,0.6065 5.150645,0.091 1.384155,-0.38347 3.746891,-1.63677 4.990273,-0.46581 3.718207,3.50167 3.137768,11.80928 9.55273,12.69311 m 92.711618,-13.4293 v 0.62463 h -0.60594 l 0.60594,-0.62463 m 4.84767,1.24925 -0.30298,0.31231 0.30298,-0.31231 m -24.5413,0.93692 0.90893,2.49847 1.21192,-0.3123 -0.30299,-1.87387 -1.81786,-0.3123 m -57.26307,0.6246 -0.30298,0.31231 0.30298,-0.31231 m 12.422151,2.18618 1.81787,-0.31231 c -0.679372,-1.23059 -1.438177,-0.96404 -1.81787,0.31231 m -52.415404,-0.93693 v 0.31231 h -1.211918 l 1.211918,-0.31231 m 83.319273,95.25428 h 0.30298 c 12.51109,-21.07158 22.27924,-43.38593 31.32702,-66.20953 3.5045,-8.84031 7.24009,-23.17701 16.54369,-27.1709 -2.19236,-2.44507 -4.82023,-0.10019 -6.43689,1.87506 -3.59093,4.38724 -5.9708,9.75195 -8.15169,14.98964 -7.33279,17.61075 -14.12794,35.31195 -22.44968,52.46793 -2.30113,4.74401 -4.79857,9.43368 -7.32528,14.05391 -1.76578,3.22881 -3.80772,6.19219 -3.81015,9.99389 M 86.30056,119.62472 c 0.215865,-0.51698 0.547674,-1.03414 0.726346,-1.56322 0.693848,-2.05442 -3.490377,-0.83373 -0.726346,1.56322 m 43.93197,-2.18615 0.90895,1.56153 v 0.31231 l -0.60597,0.31231 v 0.31231 l 2.12086,4.37233 c 2.30929,-0.41859 -0.91855,-6.60136 -2.42384,-6.87079 m -50.900493,3.12308 c 0.59845,1.08431 1.219414,1.08431 1.817875,0 1.53312,0.26697 2.37211,-0.47821 3.029787,-1.87385 l -4.847662,1.87385 m -63.625631,-1.24924 -0.302982,0.31231 0.302982,-0.31231 m 159.064084,0 0.60596,1.24924 h -0.30298 l -0.30298,-1.24924 m -109.072517,0.31231 -0.302981,0.31231 0.302981,-0.31231 m 9.392355,0 c -2.214509,0.38049 -0.369108,2.28268 0,0 m 9.089371,0 c 0.369114,2.28268 2.214507,0.38049 0,0 m -8.483412,0.62463 v 1.56155 c 1.37084,-1.6e-4 2.831692,0.307 3.33277,-1.24925 l -2.120855,0.31231 -1.211915,-0.62461 m 7.574479,2.81077 -1.817876,0.3123 v 1.24925 l -1.817874,1.24923 0.302978,0.3123 c 1.486151,-0.55765 3.359743,-1.30065 3.332772,-3.12308 1.031026,-0.1835 1.294333,-0.51512 1.514893,-1.56153 -1.068125,0.1761 -1.465112,0.42426 -1.514893,1.56153 m -22.117481,-0.93691 1.514896,2.49846 -1.514896,-1.24925 h -0.908939 l 0.908939,1.87386 v 0.62462 l -1.514895,0.93694 -0.30298,-2.18617 v -0.31231 l 1.817875,-2.18615 m 58.777965,29.04474 h 0.30297 l 14.30386,-19.67549 5.99574,-7.80773 c -2.63324,1.26583 -4.64466,4.30487 -6.48669,6.5585 -3.62522,4.43528 -7.21202,8.94049 -10.37587,13.74161 -1.40274,2.12864 -3.26168,4.62597 -3.74001,7.18311 m 2.12085,-27.17091 c -1.68085,2.72589 -3.29392,3.5656 -6.36256,2.8108 l 3.33277,6.24617 -5.75661,-7.49542 c -0.31396,2.7582 2.39999,5.5198 3.63576,7.80773 l -4.5447,-6.24617 c -2.14894,2.19687 2.04351,5.97096 3.0298,8.12003 -1.07507,-1.27246 -2.94518,-5.03682 -4.59728,-5.34612 -1.47334,-0.27584 -3.38857,2.13189 -4.49209,2.91826 -1.35762,0.96741 -3.81961,1.19863 -4.89186,2.34617 -1.636949,1.75184 -2.474969,9.83828 -0.86827,11.76099 1.73889,2.08088 8.73253,-0.83332 10.6078,-1.76613 4.36123,-2.16943 9.58739,-4.93341 10.7471,-10.22548 0.34847,-1.59011 -0.15826,-3.10304 -0.0444,-4.68464 0.13566,-1.88391 0.91689,-4.47985 0.20457,-6.24619 m -84.228214,2.49847 0.302979,0.31233 -1.817875,1.56154 1.514896,-1.87387 m -2.423834,1.56156 0.605959,1.24923 -1.514895,-0.31231 0.908936,-0.93692 m 59.686899,0 1.81788,3.43539 h -0.30298 l -1.5149,-3.43539 m -60.898814,1.24923 v 0.62464 l -1.514898,0.31229 c 0.303091,-0.94811 0.564397,-1.09131 1.514898,-0.93693 m -2.423836,0 v 1.24924 l -1.211916,-1.24924 h 1.211916 m 87.560989,3.74771 0.60596,0.93693 -0.60596,-0.93693 m -2.12086,0.31231 1.21193,1.87386 -1.21193,-1.87386 m -1.51489,1.87386 0.60596,0.93692 -0.60596,-0.93692 m 66.04945,39.03865 2.72681,-4.37234 -3.63573,5.62157 c 0.51983,1.85437 1.85631,3.79048 3.02978,1.24923 2.99875,1.90584 5.90575,2.57248 9.08939,3.97256 0.77917,0.34264 2.61384,1.57029 3.44708,0.98295 1.48668,-1.04803 -2.2002,-3.75373 -2.84113,-4.33088 l 13.33109,-2.18617 c -4.04832,-4.56531 -13.21726,-3.59909 -18.48174,-5.93388 l 1.51491,-0.62462 -0.60598,-1.24923 -0.90893,0.62461 c -0.81556,-2.49758 -3.06982,0.93812 -3.93874,1.87386 1.76818,-3.34137 -0.26964,-5.14926 -1.99976,-8.12003 -2.99414,-5.14133 -6.84385,-9.82983 -9.71425,-14.99084 -1.04712,-1.88267 -1.98034,-7.07615 -3.85715,-8.0786 -0.90095,-0.48122 -2.15229,0.41115 -2.91056,0.85573 -1.89812,1.11289 -6.58936,3.55795 -7.00545,5.97482 -0.17603,1.02254 0.738,2.22587 1.12003,3.12191 1.18292,2.77443 2.44992,5.5844 4.06848,8.12004 1.91516,3.00029 3.89694,5.87919 6.36187,8.43233 3.08752,3.19805 6.92679,7.65005 11.20998,9.05698 m -23.63238,-35.29094 -0.90893,0.93692 0.90893,-0.93692 m 0,3.12308 -1.51489,1.56156 1.51489,-1.56156 m -143.309142,2.49849 -0.30298,0.93693 c -3.098659,-1.56737 -3.376912,4.23737 0,1.56154 v 1.24924 c 2.080985,-1.03002 3.125425,-2.73416 0.30298,-3.74771 m -5.4536263,6.8708 c 2.6772993,1.16452 6.8004863,1.02854 9.3923543,-0.31231 -2.058224,-0.89027 -7.466905,-0.87662 -9.3923543,0.31231 m 46.8607803,0.2082 -0.100983,0.20821 0.100983,-0.20821 m -39.286331,6.97493 v 0.31229 c -3.319434,0.70585 -7.1517173,0.91214 -8.4834183,-3.1231 -1.839058,4.90809 6.0247633,7.0774 9.0762843,4.74705 2.473208,-1.88873 2.80823,-6.07104 -0.08555,-7.86145 -1.2101,-0.74872 -5.2199,-0.69419 -6.510779,-0.1326 -2.1605483,0.94001 -2.0859173,4.26917 -0.342488,5.51818 1.764655,1.2642 4.368913,0.91789 6.345965,0.53955 m 39.084319,-6.24618 -0.30298,1.87386 H 55.39669 l 0.605958,-1.87386 m 18.917264,1.25936 c -1.563688,1.08828 0.407583,3.28358 1.856681,2.37653 1.612704,-1.00946 -0.417437,-3.37822 -1.856681,-2.37653 m 26.832588,0.6145 c -2.930149,6.06346 -10.446973,10.31194 -16.663852,11.55542 v 1.24924 c 4.685931,-0.65045 9.012583,-2.51902 13.331083,-4.37233 v 0.31231 c -4.61258,2.04881 -8.088089,4.57307 -13.331083,4.68464 l -0.302981,1.24923 c 5.328048,0 10.494114,-1.15165 15.451943,-3.12309 v 0.31231 c -5.117919,2.27326 -9.1604,3.73157 -14.845982,3.74772 l 0.30298,0.93692 -0.908941,-1.56154 h -0.30298 c -2.56461,5.85309 0.910978,15.75752 2.470602,21.86163 0.433109,1.69515 2.592239,6.14705 1.966082,7.72072 -0.53541,1.34567 -2.979615,1.18 -4.055143,1.82618 -2.191145,1.3164 -5.628693,4.6259 -8.613408,3.36671 -1.686349,-0.71146 -2.617451,-2.2026 -3.950649,-3.34768 -1.080539,-0.92809 -2.599742,-1.50129 -3.074682,-3.00766 -0.62387,-1.97872 0.929935,-5.48371 1.320161,-7.49519 1.178131,-6.07291 2.726155,-12.19989 2.726813,-18.42624 l -7.2715,4.85548 -9.392356,4.20149 v 0.31231 c 6.032706,-0.54292 11.120505,-4.00306 16.057897,-7.18312 -5.139263,5.53516 -10.685388,8.56884 -16.966834,12.49238 v 0.31229 c 5.35727,-0.95088 11.781764,-4.35947 15.754919,-8.12002 -2.308858,5.41903 -7.537385,8.84427 -12.119168,11.97161 -1.927555,1.31567 -4.839856,2.50837 -6.059585,4.58077 6.24338,-2.15943 11.732123,-5.68169 16.966835,-9.68159 -2.300592,6.84238 -8.703356,11.1086 -14.240023,14.99083 v 0.31232 c 4.41748,-1.07904 7.963218,-3.98375 11.81619,-6.24618 -1.017997,3.84588 -1.727317,6.95731 -4.54492,9.93629 -2.252493,2.38154 -5.525153,3.82124 -7.574248,6.30377 3.606052,-0.77706 6.917399,-2.76869 9.998314,-4.7844 1.621652,-1.06097 3.195298,-2.83468 5.150646,-3.02332 l -7.268228,11.85544 -4.547961,5.32156 c 6.158027,-1.83705 12.861082,-7.59061 14.84598,-14.0539 h 0.302981 c -2.014128,8.96998 -8.983684,14.051 -16.966837,16.55237 1.452235,2.86144 5.757233,2.50516 8.180439,1.31648 5.054375,-2.4794 8.783169,-8.68906 10.301294,-14.12114 h 0.302978 c -1.785564,7.95579 -7.329247,16.7847 -16.057902,17.177 v 0.31231 c 1.603272,0.99487 3.241215,2.20411 5.150646,2.44039 9.587154,1.18638 13.371002,-13.84722 13.937045,-21.17893 h 0.302979 c -0.364098,8.73962 -3.746412,22.6166 -14.240024,23.11086 3.034637,4.7755 10.636717,1.18592 13.17071,-2.18639 4.489526,-5.97482 3.801433,-13.7768 2.281229,-20.61216 h 0.30298 c 3.209038,9.1038 8.971296,17.06806 13.331072,25.60934 2.15526,-1.05859 3.49466,-3.6768 4.24171,-5.93387 l -4.54469,1.56155 c 0.97105,-0.97134 2.30019,-1.31981 3.32062,-2.25294 2.55447,-2.33591 4.862609,-6.71742 5.162809,-10.23944 -1.6298,1.14392 -3.107219,2.49999 -5.150649,2.7527 C 91.263952,221.17759 85.298155,214.3 83.876722,208.94509 h 0.302981 c 1.76358,6.1801 9.970268,13.94757 16.053217,8.64176 3.10662,-2.70978 3.67493,-7.65694 4.85235,-11.45255 -1.54686,0.46813 -2.90401,1.52971 -4.54468,1.67575 -4.723259,0.42045 -8.833316,-3.04715 -11.513215,-6.6727 2.585405,1.4855 4.735926,3.96004 7.574476,4.9632 7.592149,2.68313 9.547989,-6.42082 10.907239,-11.834 -9.262229,3.39006 -16.887886,-2.33323 -20.602565,-10.93081 1.300163,1.08125 2.363391,2.48585 3.473277,3.77565 3.427639,3.98325 15.140298,12.61679 17.579318,2.78282 0.32885,-1.3259 0.44797,-2.69692 0.45891,-4.06001 -8.718339,1.32128 -18.08605,1.49625 -22.117466,-8.43233 4.378637,3.9623 14.167116,10.81315 20.299606,7.3855 2.76915,-1.54775 2.12188,-4.95077 2.12084,-7.69781 -5e-4,-1.33072 0.2457,-2.9959 -1.21192,-3.43542 1.11187,-1.87293 0.995,-5.50163 -0.90892,-6.87079 0.4048,-4.03891 -2.773,-8.85606 -4.24171,-12.49236 h -0.60596 m 56.96007,2.18614 v 0.62462 l -1.51489,-0.31231 h -0.30298 c -2.34332,2.96509 -7.28638,4.67149 -10.90724,4.99696 2.27458,-1.94676 5.91377,-2.00725 8.48342,-3.62867 1.43905,-0.90802 2.47396,-2.11943 4.24169,-1.6806 m -97.862259,0.31231 c -1.697157,6.10312 6.907155,7.97873 10.907252,8.74466 l 0.302978,-1.56153 c -5.89145,-6.8e-4 -7.238102,-3.6995 -11.21023,-7.18313 m -42.720066,0.93693 -1.211918,0.93694 v -0.31233 l 1.211918,-0.62461 m 142.400215,0 c -0.56191,1.03129 -0.96572,1.42272 -2.12087,1.24925 l 2.12087,-1.24925 m -83.622252,6.2462 c -0.801515,-0.16115 -1.880139,-0.9109 -2.686369,-0.57017 -1.422684,0.60127 -1.515588,3.02973 -1.307069,4.31787 0.492728,3.04379 2.340154,5.21849 5.508335,4.96756 2.76182,-0.21876 5.411591,-2.35937 5.81224,-5.28444 0.333732,-2.43652 -1.4534,-5.42578 -3.994366,-4.99237 -1.513895,-4.01386 -5.88288,-0.81455 -3.332771,1.56155 m 84.531182,-4.06004 -1.81787,1.24924 1.81787,-1.24924 m -80.895431,3.1231 v 0.31231 c -1.414695,-0.28392 -3.056837,-0.41748 -3.029791,-2.18617 l 3.029791,1.87386 m -20.299611,-1.56154 c 0.567985,5.25694 7.65803,6.8708 11.816189,6.8708 -0.551488,-1.71416 -2.760533,-1.48084 -4.241707,-1.93893 -3.11814,-0.96435 -5.004862,-3.06782 -7.574482,-4.93187 m 93.317572,0.31231 v 0.31231 c -2.0274,1.09682 -5.31295,2.15028 -7.57446,1.56154 l 7.57446,-1.87385 m -54.839219,0.62462 -0.30298,0.3123 0.30298,-0.3123 m 63.928609,0 -0.90893,1.24923 -0.30299,-0.31231 1.21192,-0.93692 m -80.592458,1.24923 h -1.211917 c 0.478767,-0.6702 0.746011,-0.67783 1.211917,0 m 72.109048,-0.62462 v 0.31231 h -1.5149 l 1.5149,-0.31231 m -50.9005,0.62462 -0.30298,0.31232 0.30298,-0.31232 m -29.388987,1.56155 1.211917,-0.31231 c -0.124814,1.01797 -0.402866,2.09494 -0.232606,3.12309 1.001955,6.05076 10.527733,0.71828 4.764664,-3.20357 -0.658903,-0.44841 -1.347383,-0.5012 -2.108224,-0.54414 5.804129,-2.50957 5.569609,10.22447 -1.198823,6.692 -0.822127,-0.42909 -1.337325,-1.14493 -1.68462,-2.00855 -0.47654,-1.18508 -0.465611,-2.50867 -0.752308,-3.74652 m 28.783017,-0.93693 v 0.31231 l -2.42382,1.24923 2.42382,-1.56154 m -25.147266,0.31231 -0.60596,1.24923 1.514897,-0.31231 c -0.406988,0.51319 -1.186221,0.75211 -1.490116,1.34565 -0.500764,0.97804 0.528169,1.91898 1.445467,1.43816 1.366272,-0.71616 0.448709,-2.38415 0.04464,-3.40842 0.68517,0.40829 1.002639,0.77993 1.298645,1.56756 2.240317,5.96118 -8.239907,1.18773 -2.207582,-1.87987 m -17.572794,0.31231 c 1.651675,6.06498 8.551868,4.02751 12.422148,6.24618 0.13031,-0.87897 0.03303,-1.33687 -0.92694,-1.51648 -4.519104,-0.84548 -7.643098,-2.1141 -11.495208,-4.7297 m 23.02642,0 -0.302979,2.49847 h -0.302978 l -0.302981,-2.49847 h 0.908939 m 77.259698,9.36928 c -3.98217,-1.39728 -11.99281,-4.47721 -12.72512,-9.36928 l 6.05956,4.40848 6.66556,4.9608 m -53.62732,-7.49542 v 0.3123 c -5.75207,3.90566 -10.092439,5.24389 -16.966833,4.68464 v 0.31231 c 6.215074,1.48212 11.461463,3.67571 17.875763,1.56154 v 0.31231 c -7.30647,3.24037 -15.265086,1.12959 -21.814495,-2.81078 l 11.513216,-0.44604 9.392349,-3.92628 m -47.264755,0.93692 c 0.188723,3.54363 8.622951,7.15316 10.907249,4.06002 -4.170587,-0.0893 -7.317729,-2.22754 -10.907249,-4.06002 m 129.069135,0.31231 c -1.56779,2.61871 -3.4441,7.89036 -6.05957,9.36929 0.94909,-2.90229 3.64118,-7.57484 6.05957,-9.36929 m -44.53794,0.62461 c 5.98286,9.99329 14.36645,19.41262 18.78471,30.29399 -2.5068,-1.20498 -4.46844,-4.04794 -6.16128,-6.24619 -3.79456,-4.92745 -7.16905,-10.18383 -10.24145,-15.61543 -1.0877,-1.92295 -3.81649,-6.30689 -2.38198,-8.43237 m -1.81788,2.18617 9.48587,19.98779 13.54056,24.04781 c -3.0254,-2.29532 -4.98815,-6.21154 -7.07278,-9.36929 -4.81186,-7.28885 -9.19623,-14.71669 -12.66273,-22.79855 -1.24593,-2.90482 -4.40187,-8.67353 -3.29092,-11.86776 m -58.172007,28.42013 3.938731,-0.62462 -4.014469,-19.05084 -0.833193,-8.12006 c -3.077438,1.3592 -1.855543,4.69957 -1.565159,7.49543 0.693826,6.68026 2.339975,13.60351 2.47409,20.30009 m 1.211921,-27.79552 c 4.599285,4.49762 12.166177,7.22448 18.481746,6.87082 v 0.31231 c -5.273119,1.52746 -10.507779,1.04131 -15.148974,-2.09123 -1.562092,-1.0543 -4.159672,-2.87969 -3.332772,-5.0919 m -15.451937,1.24925 0.302979,0.3123 -0.302979,-0.3123 m -0.908939,0.3123 -11.210229,2.18617 v 0.31231 c 3.763125,1.14657 8.323597,-0.0197 11.51321,-2.18617 l -0.302981,-0.31231 m 6.362565,0 -1.893622,15.92777 -1.136171,7.80773 c -2.779876,0.83433 -0.670025,2.86379 1.211916,3.12309 1.587249,-8.68397 2.247121,-18.03483 2.423836,-26.85859 h -0.605959 m 4.544688,25.92166 h 1.211917 v 0.31231 c -1.597688,0.28619 -1.372358,1.40231 -1.211917,2.81078 l 3.63575,-0.62461 -3.02979,-28.10783 c -1.989132,0.68052 -1.211916,4.45746 -1.211916,6.2462 0,6.45689 0.588732,12.91612 0.605959,19.36315 m -2.423835,-25.29704 c -0.0646,8.04554 -0.392648,17.07113 -1.817874,24.98473 l 3.029792,0.31231 -0.605958,-25.29704 h -0.60596 m 63.928601,0.31231 c 5.28992,13.29465 9.66131,26.75329 17.09566,39.03864 3.29909,5.45177 7.10996,10.74149 11.16792,15.61547 2.01603,2.4214 4.50051,4.58488 6.27606,7.18311 -5.44223,-3.19627 -9.88509,-8.64215 -13.59574,-13.74161 -7.02037,-9.64795 -12.20401,-20.0608 -16.53526,-31.23091 -1.63576,-4.21862 -6.26653,-12.30089 -4.40864,-16.8647 m -90.893749,0.62462 -0.302979,0.31231 0.302979,-0.31231 m 146.944909,2.18616 3.63575,2.8108 v -2.18616 l 3.02979,2.49847 0.30299,-0.31231 c -0.93932,-3.35337 -3.95796,-4.66977 -6.96853,-2.8108 M 49.943054,176.15268 v 1.56155 h -0.302979 l 0.302979,-1.56155 m 153.004496,0 v 0.31231 l 3.33277,1.56155 c -0.72367,-1.51202 -1.76168,-1.83471 -3.33277,-1.87386 m -116.64699,0.93693 -0.30298,0.31231 0.30298,-0.31231 m 114.52613,0 -0.30298,0.31231 0.30298,-0.31231 m -60.89882,0.31231 c 2.02091,3.28621 2.70639,7.52714 3.68158,11.24313 1.24953,4.76137 2.79751,9.41234 4.40558,14.05389 4.38283,12.6506 10.66469,24.12873 16.15117,36.22788 -3.7659,-2.75727 -5.95275,-7.80597 -8.13834,-11.86776 -5.75542,-10.69603 -10.29315,-22.27898 -13.54664,-34.04168 -1.01873,-3.68313 -2.26005,-7.44822 -2.81565,-11.24315 -0.21892,-1.49532 -0.67482,-3.097 0.2623,-4.37231 m -50.597519,14.36621 4.85959,4.88948 5.44169,3.54287 c -4.00969,-0.77871 -10.746462,-2.86496 -10.30128,-8.43235 m -10.907252,7.80773 c -0.602935,4.2e-4 -1.216836,-0.0265 -1.818106,0.0293 -5.233197,0.48673 1.960691,6.38771 2.036695,1.84447 0.01024,-0.61659 -0.144139,-1.26341 -0.218589,-1.87386 m 10.604272,1.24925 -0.30298,0.3123 0.30298,-0.3123 m -3.332771,2.18615 7.877461,9.6816 c -3.279846,-1.23779 -8.233984,-5.64478 -7.877461,-9.6816 m -56.051153,10.30621 c 0.533119,-1.1611 1.523089,-2.72709 1.245813,-4.05977 -0.437075,-2.10078 -3.787734,-4.05908 -5.786057,-3.55662 -1.148446,0.28877 -2.73531,1.82328 -1.924947,3.10693 0.743671,1.17803 2.34405,2.09254 3.435399,2.89948 0.963805,0.71263 1.893233,1.26522 3.029792,1.60998 m 53.930299,-5.62157 0.302972,1.24925 h -0.302972 v -1.24925 m 91.499724,1.24925 -0.30298,0.31231 0.30298,-0.31231 m -142.671417,4.12195 c -4.438979,2.03303 1.91281,7.13134 5.049887,5.6835 4.177225,-1.92795 -2.255572,-6.9633 -5.049887,-5.6835 m 50.262755,3.06115 c 0,8.29482 -3.375674,14.52772 -10.301293,18.73855 v 0.31232 c 4.93545,3.12771 9.723674,6.65993 14.543006,9.99413 2.048806,1.41745 3.739596,3.86806 6.05958,1.87361 l -3.029789,3.12309 h -0.30298 l -0.908941,-0.62462 c -0.557898,2.5266 2.145842,1.81224 3.02979,0.31231 h 0.30298 c 0.119967,5.25876 4.02745,10.85773 5.45362,15.92776 -4.91249,1.20558 -11.451281,-2.50685 -13.422943,-7.48288 -0.774475,-1.95459 2.209572,-2.52445 0.394841,-4.38486 l -0.908933,1.56154 2.482046,-5.93387 1.189712,-2.74524 -3.065805,-2.50401 -9.089371,-5.68158 -1.817876,14.05392 0.908938,0.31231 -0.605959,1.87386 c -1.271017,-4.10527 -4.301272,-0.54206 -1.514896,-0.31231 l -0.302978,-1.56155 h 0.302978 c 0.330949,1.43289 -0.149354,3.67596 0.614373,4.90248 1.748456,2.80797 6.873212,2.15254 5.445212,6.96528 1.894933,0.57064 5.220722,3.57386 1.211685,4.01879 -2.064822,0.22917 -2.976534,-2.32592 -4.847436,-2.58111 -6.403514,-0.87348 -13.902269,0.34866 -20.299606,1.00799 -1.816211,0.18721 -5.285817,-0.1044 -6.362563,1.61432 35.504282,2.88832 71.63945,3.80602 107.25462,2.19848 8.96689,-0.40475 18.04401,-0.0868 26.96515,-1.17236 2.9013,-0.35307 7.2378,0.15412 9.69534,-1.65072 -4.33537,-1.89806 -10.19944,-1.36411 -14.84599,-1.57384 -9.39536,-0.42407 -18.74898,-0.61233 -28.17705,-0.61233 0.83249,-1.36769 1.98037,-3.88374 -0.60596,-3.43539 v -0.3123 c 1.50129,-1.12906 0.3948,-3.56408 -0.30298,-4.99695 l -0.90893,0.31231 0.60596,-2.81079 c -2.09476,0.49502 -7.14388,1.07122 -6.36258,4.06003 l 5.45364,-1.24924 v 0.3123 l -13.63407,1.56155 c 0.0187,5.44978 9.27445,2.33887 12.72513,2.18617 v 0.31231 l -12.72513,0.93692 c 0.25405,1.5232 1.34561,1.932 2.72681,2.18617 -2.35174,1.7638 -5.70477,0.93691 -8.48341,0.93691 -6.87133,0 -13.75412,-0.31231 -20.60258,-0.31231 -1.04472,0 -2.31679,-0.18435 -3.30566,0.23184 -1.86826,0.78628 -2.27046,2.57435 -4.571809,1.95433 v -0.31231 c 6.225389,-0.15521 3.665829,-9.56985 3.967019,-13.42929 0.31726,-4.06559 7.00231,-12.55518 -0.63424,-13.95124 -1.27299,-0.23272 -2.647999,-0.31 -3.938729,-0.415 l -0.60597,-3.43538 c -1.81717,0.62786 -0.65291,3.9566 -1.51489,5.62156 0.10415,-3.68611 -1.74701,-5.63782 -3.50694,-8.74465 -3.120117,-5.50802 -5.905354,-12.28429 -9.824143,-17.17701 m 87.863962,0.31231 9.69534,8.43236 v 0.3123 c -2.71425,-1.22291 -9.29157,-5.45303 -9.69534,-8.74466 m -129.372113,1.56155 c -0.636943,5.19978 3.365456,5.62156 7.574479,5.62156 l -0.908936,-4.99694 -6.665543,-0.62462 m 82.511323,3.3313 0.10098,0.20823 -0.10098,-0.20823 m -0.40396,0.72872 -2.12085,10.30618 h 0.30298 c 0.36743,-2.93303 2.79802,-7.48801 1.81787,-10.30618 m 67.56436,5.93388 c -0.81564,2.18572 -2.48403,4.04872 -3.81039,5.93386 -3.36489,4.78256 -7.29586,10.91546 -13.45943,11.86776 v -0.31232 c 8.39954,-3.60475 11.18909,-11.32471 17.26982,-17.4893 m -69.98819,5.93386 -4.25784,10.93082 -1.38938,4.61911 2.92041,2.2517 2.43903,-13.117 0.28778,-4.68463 m -23.632379,4.06003 -0.30298,0.31231 0.30298,-0.31231 m 0.50497,3.6436 -0.10099,0.2082 0.10099,-0.2082 m 77.966639,6.6626 v 0.31231 c 3.83305,1.44005 11.28931,-0.94928 10.30128,-6.24619 -3.79109,1.86033 -5.69361,5.31997 -10.30128,5.93388 m -79.683529,-5.62157 -0.90894,2.49847 h -0.30298 l 1.21192,-2.49847 m 1.51489,1.24924 -1.21191,-0.31231 1.21191,0.31231 m 50.900509,10.93082 c 0.87542,2.78533 4.38574,1.76149 6.66553,1.24441 6.22646,-1.41225 11.69402,-6.29202 16.96685,-9.67676 -0.35697,-0.93786 -0.92777,-2.22823 -2.1253,-1.64035 -4.48772,2.20311 -8.34879,5.93685 -13.02367,8.1015 -2.76697,1.2812 -5.65804,1.1023 -8.48341,1.9712 m -52.112419,-8.74466 -0.90894,-0.93693 0.90894,0.93693 m -2.12086,-0.3123 -1.21191,1.24923 0.60596,-1.24923 h 0.60595 m 0.90894,0.93692 -0.60596,1.24923 v -1.24923 h 0.60596 m 63.322639,1.56155 -0.30298,0.31231 0.30298,-0.31231 m -64.837529,0.31231 v 0.93692 h -0.60596 v -0.93692 h 0.60596 m 69.988189,8.43235 v 0.31231 c 3.98068,1.20155 13.45649,-3.36565 12.11917,-8.43235 l -5.45363,4.32291 -6.66554,3.79713 m -49.68859,-6.55851 c 0.22695,2.05585 1.8662,3.05634 3.63575,3.74772 0.4678,-2.2899 -1.77019,-3.18205 -3.63575,-3.74772 m -1.21193,1.87386 c -0.63306,2.78196 1.22906,3.96859 3.63577,4.68465 0.8994,-2.62727 -1.28038,-4.1141 -3.63577,-4.68465 m -37.266423,1.24924 h 0.30298 l -0.30298,1.56154 v -1.56154 m 2.120854,0 0.30298,1.56154 c -0.740462,-0.50204 -0.806462,-0.80795 -0.30298,-1.56154 m 2.726812,0.62462 -0.302979,1.24923 -0.908937,-1.24923 h 1.211916 m 38.175387,0.31231 c 0.91789,1.81995 3.27301,2.5209 5.15064,2.81079 l 0.30298,-1.87387 c -1.60631,-0.81054 -3.70044,-1.4336 -5.45362,-0.93692 m -35.751552,0.62461 -1.211918,-0.62461 1.211918,0.62461 m 29.085992,0 c -0.31455,2.29465 2.02928,3.45139 3.93874,3.74773 -0.0811,-1.83788 -2.53917,-2.85742 -3.93874,-3.74773 m 6.05959,0.93693 c -0.48405,2.84429 2.19907,3.79801 4.54469,4.37234 l 0.90894,-2.81078 -5.45363,-1.56156 m 6.96851,0.31233 c 0.50989,1.73648 5.24144,3.33211 6.78431,2.16543 1.48825,-1.12539 -0.88388,-1.83583 -1.6339,-1.85169 -0.71074,-0.0149 -1.41298,-0.004 -2.12062,-0.0905 -1.02096,-0.12418 -1.99997,-0.2202 -3.02979,-0.22312 m 8.78641,0.62462 c 0.22125,2.86009 4.62882,2.26362 6.66554,1.87384 v -1.87384 h -6.66554 m 29.086,0 c -4.4083,2.38287 -7.69447,3.74769 -12.72512,3.74769 v 1.24924 c 3.4642,0.66295 7.13625,0.47465 10.30129,-1.24466 1.34101,-0.72844 2.99039,-2.04409 2.42383,-3.75227 m -38.78133,3.74769 c 0.98035,0.52983 1.9385,0.84898 3.02979,1.05717 0.70202,0.13391 1.41305,0.22668 2.12084,0.32219 1.18224,0.15955 4.13264,-0.49611 2.71395,-2.44013 -0.52743,-0.72272 -1.94211,-0.52022 -2.71395,-0.63451 -2.5635,-0.37962 -4.52748,-1.54632 -5.15063,1.69528 m -1.81788,1.87386 c 0.8705,-3.95453 -7.96529,-3.47866 -3.33137,-1.03935 0.38339,0.20183 0.79981,0.35363 1.21005,0.48535 0.6945,0.22298 1.41721,0.36576 2.12132,0.554 m 26.35919,-1.56155 v 0.31231 l -2.72681,0.31231 2.72681,-0.62462 m -24.84429,1.24924 v 0.62462 c 1.86779,1.01047 7.65487,2.94556 8.18043,-0.31231 l -8.18043,-0.31231 m -24.844299,1.87386 v 3.4354 h -0.30298 l 0.30298,-3.4354 m -10.30129,1.24924 0.90894,2.18616 -0.90894,-2.18616 m -2.423831,0.31231 1.514889,1.87385 -0.908928,0.31231 -0.605961,-2.18616 m 4.54468,0 0.908941,1.24924 -0.908941,-1.24924 m -5.756601,2.18616 -0.30298,0.31231 h -0.605961 l -0.908931,-2.18617 1.817872,1.87386 m 50.597521,-1.87386 0.60595,1.87386 -1.21191,-0.31231 0.60596,-1.56155 m 13.33109,0 -0.90894,0.93694 0.30298,-0.93694 h 0.60596 m -1.51489,1.56155 c -1.23724,0.54889 -1.92602,0.40006 -2.42383,-0.93693 1.13592,-0.21748 1.66317,0.0501 2.42383,0.93693 m -7.87747,-0.93693 -1.21192,1.56155 c -0.16584,-1.11189 0.15449,-1.3802 1.21192,-1.56155 m 3.93873,0.31232 c -0.54731,1.02194 -1.02455,1.18974 -2.12086,0.93692 v -0.31231 l 1.5149,-0.62461 z"
       id="path1" /></g></svg>
