<?xml version="1.0" encoding="UTF-8" standalone="no"?>
<!-- Created with Inkscape (http://www.inkscape.org/) -->

<svg
   width="205.07033mm"
   height="230.81053mm"
   viewBox="0 0 726.62715 817.83259"
   id="svg2"
   version="1.1"
   xmlns="http://www.w3.org/2000/svg"
   xmlns:svg="http://www.w3.org/2000/svg"
   xmlns:rdf="http://www.w3.org/1999/02/22-rdf-syntax-ns#"
   xmlns:cc="http://creativecommons.org/ns#"
   xmlns:dc="http://purl.org/dc/elements/1.1/">
  <defs
     id="defs4" />
  <metadata
     id="metadata7">
    <rdf:RDF>
      <cc:Work
         rdf:about="">
        <dc:format>image/svg+xml</dc:format>
        <dc:type
           rdf:resource="http://purl.org/dc/dcmitype/StillImage" />
        <dc:title />
      </cc:Work>
    </rdf:RDF>
  </metadata>
  <g
     id="layer1"
     transform="translate(-14.510435,-228.18185)">
    <g
       id="g192">
      <g
         id="g191"
         style="fill:#333333">
        <path
           id="path3336"
           d="m 426.0508,252.76272 c 14.64846,38.34448 16.58759,69.82595 11.39582,96.88447 -1.80741,9.4199 -4.51121,18.38476 -7.88715,27.0305 -12.26557,-10.04394 -22.52669,-20.92902 -30.20915,-33.16026 -8.9208,-14.20281 -14.51847,-30.45264 -15.55106,-49.57591 -1.03237,19.11909 2.5076,36.40018 10.09008,52.44529 7.0963,15.01633 17.62706,28.71745 30.8157,41.58633 -5.57809,11.84996 -12.35091,23.1537 -19.77159,34.24428 -0.14483,0.21648 -0.28138,0.41425 -0.42542,0.62891 -14.09847,-3.5108 -26.02548,-9.17346 -36.16504,-16.59564 -10.9942,-8.0478 -19.9977,-18.24163 -27.32808,-30.11916 -14.74755,-23.89566 -22.20854,-53.74993 -25.92335,-84.13051 0.41831,30.21724 4.58824,61.78003 17.22958,88.65283 3.48611,7.41073 7.64967,14.5244 12.60048,21.19244 -18.43126,1.32341 -34.17633,-3.52865 -48.90032,-12.10642 -17.51499,-10.20371 -33.09857,-25.34523 -49.56583,-40.59332 15.35256,15.99825 30.27027,32.36905 47.42188,43.89299 15.87913,10.669 34.06076,17.44883 56.68848,15.81366 2.57346,2.94086 5.3259,5.77243 8.27254,8.47987 9.48302,8.7132 20.88692,16.06146 34.48445,21.56067 -12.38922,17.15899 -23.0091,30.03466 -38.46486,52.77836 -9.91881,14.59589 -19.51011,30.3669 -27.53026,47.78229 -15.61067,-7.91049 -29.60267,-17.61038 -41.80505,-28.94824 7.11377,-12.72609 8.7858,-25.93934 7.90821,-38.59076 -1.00824,-14.53494 -5.43962,-29.27597 -9.82891,-43.10274 1.80553,14.71976 3.36484,29.30332 1.67429,42.92275 -1.30814,10.53867 -4.50058,19.83344 -10.40597,27.94283 -3.85242,-4.28597 -7.49401,-8.75429 -10.88827,-13.42423 -18.81192,-25.88201 -30.54593,-57.70032 -33.2208,-93.97576 -2.66523,36.14461 3.6914,70.90926 19.46619,102.02948 14.38531,28.37906 36.52491,53.51638 66.18256,73.32327 -1.09551,3.47906 -2.13291,7.00783 -3.07484,10.61483 -6.07274,24.43534 -6.56711,49.15468 -3.75507,73.62944 -17.58986,-6.36411 -34.05867,-15.45389 -49.35523,-26.9374 -12.43262,-9.33347 -23.99837,-20.18776 -34.65712,-32.26447 4.10775,-4.49248 7.13714,-9.3394 9.29188,-14.37379 2.92204,-6.82721 4.23769,-13.93863 4.64383,-20.94832 0.81896,-14.135 -2.03754,-29.0885 -4.29213,-42.2442 -0.33958,13.80143 -0.22666,28.1692 -3.53184,41.10638 -1.59553,6.24528 -3.92096,11.84699 -7.24691,16.70322 -2.21782,3.23823 -4.89222,6.13696 -8.09776,8.7033 -5.39213,-6.81557 -10.52707,-13.94813 -15.38256,-21.37449 -13.83213,-21.15594 -25.28346,-44.35983 -34.25909,-68.37893 13.59653,-11.88655 25.34253,-26.65793 33.49248,-42.15524 8.38916,-15.95215 12.93686,-32.60111 11.86969,-47.62299 -1.05571,14.86064 -7.62352,30.36048 -17.34541,44.43502 -8.70472,12.60195 -20.00186,24.1376 -32.32363,33.17266 -10.55055,-31.43539 -16.926,-63.89015 -18.91441,-94.68327 -3.06393,47.44913 4.29669,101.58338 22.9791,151.98395 -7.55571,0.2905 -14.10179,-0.35366 -19.86635,-1.78741 -7.96801,-1.98179 -14.76075,-5.51688 -20.91939,-10.43692 -12.5773,-10.04791 -21.75488,-25.18515 -32.496307,-42.38902 8.296607,17.78102 15.743497,35.0456 27.464967,47.5961 5.98844,6.41197 13.23593,11.77567 22.47996,15.43713 8.12171,3.21692 17.57743,5.03403 28.71385,5.1926 2.89962,6.93834 6.0095,13.78891 9.35718,20.51595 10.71262,21.52673 23.85159,42.04769 39.57684,60.45969 -12.4409,6.0003 -24.43052,9.60795 -36.17558,11.32236 -14.17171,2.0686 -28.12957,1.41107 -42.21783,-1.2061 -28.41878,-5.27931 -56.263742,-18.2834 -86.185792,-31.42869 28.183722,15.36758 55.558772,31.29029 84.220842,39.45758 14.46114,4.12071 29.50655,6.35462 45.42535,5.49878 14.76457,-0.79379 30.14668,-4.24635 46.32673,-11.17135 1.93161,1.98083 3.88404,3.94329 5.8843,5.86083 22.35791,21.43317 49.21271,38.96484 80.77747,49.93172 0.74965,2.89888 1.52007,5.79179 2.31875,8.67227 10.8877,39.26681 29.48742,86.86898 40.24236,122.23924 5.88143,19.34252 10.37972,37.50368 12.72053,54.71886 2.33682,17.18573 2.41284,32.6717 -0.0358,46.82445 -1.97198,11.39778 -5.60197,22.06369 -11.15362,32.24999 -4.91436,9.01697 -54.92606,62.12445 -73.9328,81.45975 h 132.58619 c 9.03537,-15.0836 12.07171,-31.3912 18.60904,-47.01066 8.19389,-19.57745 12.41892,-39.21961 13.67036,-58.62056 1.52854,-23.69648 -1.3961,-46.70219 -6.57298,-68.52373 -5.16509,-21.77193 -12.7474,-43.07193 -21.01414,-63.42836 -9.91294,-24.41011 -19.54607,-45.0282 -28.78125,-65.4061 26.5165,-6.15023 51.60549,-16.58785 74.50776,-30.12123 20.7505,-12.26186 39.86827,-27.15401 56.87592,-43.90542 29.85726,13.25889 60.4909,15.55185 89.64814,11.01618 31.02879,-4.82682 60.85162,-17.44275 87.16721,-33.41057 -27.70355,13.87246 -57.84901,23.75159 -88.05596,25.96715 -26.86604,1.9705 -53.37339,-2.14541 -78.19545,-14.50619 5.03828,-5.48742 9.86758,-11.13417 14.4517,-16.93491 14.9893,-18.96747 27.50291,-39.5529 37.02853,-61.03894 16.22208,-4.04673 29.69314,-14.47686 40.35608,-25.77683 11.72827,-12.42895 20.83737,-26.72401 27.00164,-37.15503 -7.88743,9.48103 -18.37297,22.29556 -31.09369,32.98026 -9.67783,8.12885 -20.14361,14.57634 -31.15476,17.59486 2.526,-6.58604 4.78272,-13.23802 6.72672,-19.94498 9.61696,-33.17931 11.86352,-67.35444 5.29039,-100.28549 2.43334,33.37786 -4.14915,66.12291 -17.06319,96.22865 -9.34541,21.78632 -22.07313,42.30523 -37.28547,60.85275 -5.73022,-10.17816 -9.8354,-20.74353 -12.54363,-31.90451 -3.47415,-14.31743 -4.62863,-29.47208 -4.07099,-45.76524 -3.18182,15.90317 -4.76505,31.44911 -3.80353,46.89685 0.88595,14.23319 3.94669,28.45972 9.94266,42.82345 -2.63156,2.85031 -5.31775,5.64961 -8.06616,8.38472 -23.56986,23.45576 -51.18891,42.45656 -80.59425,55.34569 -0.39077,0.17128 -0.78391,0.33158 -1.17516,0.50065 -3.04634,-9.13884 -4.36838,-19.93466 -3.31071,-30.25571 1.31274,-12.81014 6.31071,-25.1585 16.68833,-32.3886 -11.79983,5.446 -19.57042,17.19686 -23.42347,31.13906 -3.18436,11.52259 -3.65522,24.46995 -1.60692,36.18272 -20.78406,7.71361 -42.07271,12.28166 -63.17722,13.35802 -0.98341,-2.49974 -1.95996,-5.02793 -2.9295,-7.59237 -10.59641,-28.02719 -17.73851,-54.51471 -18.59852,-79.81919 19.92088,2.20674 38.26646,0.73538 54.9889,-3.45691 20.36428,-5.10528 38.17628,-14.19267 53.53996,-25.36307 30.59703,-22.24606 52.20674,-53.28025 65.55496,-79.94333 -16.80304,25.12403 -40.86442,52.64584 -71.83942,70.67939 -9.96556,5.80195 -20.5596,10.56119 -31.7655,13.96417 -2.14483,-11.88794 -1.80348,-21.585 0.88032,-30.35707 3.06301,-10.01158 9.21782,-19.0728 18.27629,-28.74343 -10.47859,7.803 -19.03552,15.76596 -24.76714,26.04369 -5.47343,9.81477 -8.23483,21.47749 -7.70182,36.37925 -1.86375,0.36642 -3.73882,0.7038 -5.63367,0.99301 -15.70031,2.39636 -32.56305,2.10211 -50.65466,-1.69432 0.11774,-0.97431 0.24533,-1.94807 0.38541,-2.91903 3.74182,-27.97688 13.59776,-53.15103 26.31296,-78.44552 0.36065,-0.71745 0.782,-1.50715 1.15622,-2.24049 31.92015,-6.17071 60.31049,-15.98934 84.76211,-29.48611 19.00395,7.9792 37.79081,8.80035 54.77619,4.39198 17.89872,-4.64543 33.79805,-15.05848 46.41098,-29.03306 -14.31155,12.46378 -30.8385,20.25814 -47.7399,22.41715 -13.35427,1.70589 -26.8978,-0.11066 -40.02333,-5.81944 13.94423,-9.04812 26.41215,-19.44982 37.28969,-31.23422 33.00466,-35.75631 50.79372,-83.39144 52.77966,-142.71589 -6.08364,59.40175 -27.87984,103.6133 -61.50291,134.27118 -0.7508,0.6846 -1.5155,1.35564 -2.27875,2.02739 -8.03349,-15.95761 -13.07529,-34.46241 -14.26425,-52.39357 -1.32065,-19.91693 2.08985,-39.21502 11.46953,-53.43622 -10.76014,13.46211 -15.9469,32.77178 -16.17234,53.56241 -0.21043,19.40413 3.89837,40.04505 11.80018,58.25233 -27.50295,21.72183 -62.25766,35.92394 -103.34165,43.13997 8.87389,-16.09935 18.33534,-32.98172 25.20307,-47.08925 12.59547,-25.8733 22.22684,-52.54916 23.891,-82.2893 0.36786,-6.57406 0.3195,-13.26544 -0.13899,-20.08771 17.99715,-6.13921 28.7607,-17.17487 36.27666,-29.98264 7.69168,-13.10718 12.36637,-28.71476 18.04462,-43.75855 -7.34233,14.75219 -13.34987,29.23917 -22.19142,41.11467 -8.07016,10.83942 -18.1229,18.93303 -33.0481,23.0233 -2.64806,-21.14469 -9.47239,-43.69503 -21.6944,-68.49893 z"
           style="fill:#333333;fill-opacity:1;stroke:none;stroke-width:1.06871;stroke-miterlimit:4;stroke-dasharray:none;stroke-opacity:1" />
      </g>
      <path
         style="fill:#9acd32;fill-opacity:1;stroke:none;stroke-width:1.06871"
         d="m 565.25705,681.36993 a 38.079729,37.150258 0 0 0 -12.79315,33.16905 38.079729,37.150258 0 0 0 21.5971,28.5226 38.079729,37.150258 0 0 0 12.79442,-33.16923 38.079729,37.150258 0 0 0 -21.59837,-28.52242 z"
         id="path5965" />
      <path
         id="path5967"
         d="m 602.21179,683.05853 a 36.367835,35.724041 0 0 0 -4.85259,33.74397 36.367835,35.724041 0 0 0 26.21246,22.35625 36.367835,35.724041 0 0 0 4.85372,-33.74438 36.367835,35.724041 0 0 0 -26.21359,-22.35584 z"
         style="fill:#9acd32;fill-opacity:1;stroke:none;stroke-width:1.06871" />
      <path
         style="fill:#9acd32;fill-opacity:1;stroke:none;stroke-width:1.06871"
         d="m 635.45519,678.03916 a 31.284563,30.730754 0 0 0 -0.4536,29.31223 31.284563,30.730754 0 0 0 24.8158,16.31666 31.284563,30.730754 0 0 0 0.45451,-29.3127 31.284563,30.730754 0 0 0 -24.81671,-16.31619 z"
         id="path5969" />
      <path
         id="path5971"
         d="m 662.61457,670.15495 a 28.2346,27.734783 0 0 0 4.32389,26.11445 28.2346,27.734783 0 0 0 24.68006,10.63596 28.2346,27.734783 0 0 0 -4.32317,-26.11503 28.2346,27.734783 0 0 0 -24.68078,-10.63538 z"
         style="fill:#9acd32;fill-opacity:1;stroke:none;stroke-width:1.06871" />
      <path
         style="fill:#9acd32;fill-opacity:1;stroke:none;stroke-width:1.06871"
         d="m 741.04305,618.77626 a 25.800217,25.343494 0 0 0 -24.28703,3.91648 25.800217,25.343494 0 0 0 -9.86067,22.16727 25.800217,25.343494 0 0 0 24.28758,-3.91581 25.800217,25.343494 0 0 0 9.86012,-22.16794 z"
         id="path5973" />
      <path
         id="path5975"
         d="m 568.72058,666.41169 a 40.434453,39.71867 0 0 1 -0.58626,-37.88527 40.434453,39.71867 0 0 1 32.07374,-21.08886 40.434453,39.71867 0 0 1 0.58745,37.88588 40.434453,39.71867 0 0 1 -32.07493,21.08825 z"
         style="fill:#9acd32;fill-opacity:1;stroke:none;stroke-width:1.06871" />
      <path
         style="fill:#9acd32;fill-opacity:1;stroke:none;stroke-width:1.06871"
         d="m 608.65203,670.32164 a 36.367835,35.724041 0 0 1 -0.5273,-34.07503 36.367835,35.724041 0 0 1 28.84798,-18.96789 36.367835,35.724041 0 0 1 0.52837,34.07559 36.367835,35.724041 0 0 1 -28.84905,18.96733 z"
         id="path5977" />
      <path
         id="path5979"
         d="m 649.50573,664.50706 a 31.284563,30.730754 0 0 1 -0.4536,-29.31222 31.284563,30.730754 0 0 1 24.81581,-16.31668 31.284563,30.730754 0 0 1 0.45451,29.31271 31.284563,30.730754 0 0 1 -24.81672,16.31619 z"
         style="fill:#9acd32;fill-opacity:1;stroke:none;stroke-width:1.06871" />
      <path
         style="fill:#9acd32;fill-opacity:1;stroke:none;stroke-width:1.06871"
         d="m 659.94879,516.94111 a 17.051403,16.749554 0 0 1 -0.24723,-15.97639 17.051403,16.749554 0 0 1 13.52567,-8.89327 17.051403,16.749554 0 0 1 0.24771,15.97666 17.051403,16.749554 0 0 1 -13.52615,8.893 z"
         id="path5981" />
      <path
         id="path6484"
         d="m 620.10965,566.0267 a 24.626569,24.190622 0 0 0 11.58319,20.0766 24.626569,24.190622 0 0 0 23.46578,1.363 24.626569,24.190622 0 0 0 -11.58278,-20.07727 24.626569,24.190622 0 0 0 -23.46619,-1.36233 z"
         style="fill:#9acd32;fill-opacity:1;stroke:none;stroke-width:1.06871" />
      <path
         style="fill:#9acd32;fill-opacity:1;stroke:none;stroke-width:1.06871"
         d="m 636.06389,552.07902 a 19.439695,19.095568 0 0 0 13.5729,12.41258 19.439695,19.095568 0 0 0 17.99505,-4.44685 19.439695,19.095568 0 0 0 -13.57273,-12.41319 19.439695,19.095568 0 0 0 -17.99522,4.44746 z"
         id="path6486" />
      <path
         id="path6488"
         d="m 651.85687,532.57575 a 16.1979,15.91116 0 0 0 11.30946,10.34262 16.1979,15.91116 0 0 0 14.99416,-3.70527 16.1979,15.91116 0 0 0 -11.30931,-10.34315 16.1979,15.91116 0 0 0 -14.99431,3.7058 z"
         style="fill:#9acd32;fill-opacity:1;stroke:none;stroke-width:1.06871" />
      <path
         style="fill:#9acd32;fill-opacity:1;stroke:none;stroke-width:1.06871"
         d="m 620.17215,551.07163 a 24.626569,24.190622 0 0 1 -8.9011,-21.3561 24.626569,24.190622 0 0 1 13.41867,-18.95877 24.626569,24.190622 0 0 1 8.90193,21.35618 24.626569,24.190622 0 0 1 -13.4195,18.95869 z"
         id="path6490" />
      <path
         id="path6492"
         d="m 642.73347,528.38828 a 19.439695,19.095568 0 0 1 -8.93896,-15.96027 19.439695,19.095568 0 0 1 8.78457,-16.0553 19.439695,19.095568 0 0 1 8.93961,15.96026 19.439695,19.095568 0 0 1 -8.78522,16.05531 z"
         style="fill:#9acd32;fill-opacity:1;stroke:none;stroke-width:1.06871" />
      <path
         style="fill:#9acd32;fill-opacity:1;stroke:none;stroke-width:1.06871"
         d="m 607.5997,446.2012 a 16.1979,15.91116 0 0 1 -10.76605,-10.88784 16.1979,15.91116 0 0 1 3.45381,-14.80387 16.1979,15.91116 0 0 1 10.76658,10.88769 16.1979,15.91116 0 0 1 -3.45434,14.80402 z"
         id="path6494" />
      <path
         id="path6496"
         d="m 587.7502,546.64489 a 26.562044,26.091835 0 0 1 -22.30651,-11.80717 26.562044,26.091835 0 0 1 -2.03678,-24.82489 26.562044,26.091835 0 0 1 22.30723,11.80667 26.562044,26.091835 0 0 1 2.03606,24.82539 z"
         style="fill:#9acd32;fill-opacity:1;stroke:none;stroke-width:1.06871" />
      <path
         style="fill:#9acd32;fill-opacity:1;stroke:none;stroke-width:1.06871"
         d="m 597.19748,516.78537 a 20.755619,20.388197 0 0 1 -17.43033,-9.22615 20.755619,20.388197 0 0 1 -1.59155,-19.3982 20.755619,20.388197 0 0 1 17.4309,9.22574 20.755619,20.388197 0 0 1 1.59098,19.39861 z"
         id="path6498" />
      <path
         id="path6500"
         d="m 603.37581,489.89548 a 17.006037,16.704991 0 0 1 -14.28148,-7.5594 17.006037,16.704991 0 0 1 -1.30403,-15.89385 17.006037,16.704991 0 0 1 14.28194,7.55908 17.006037,16.704991 0 0 1 1.30357,15.89417 z"
         style="fill:#9acd32;fill-opacity:1;stroke:none;stroke-width:1.06871" />
      <path
         style="fill:#9acd32;fill-opacity:1;stroke:none;stroke-width:1.06871"
         d="m 604.9551,466.10828 a 17.006037,16.704991 0 0 1 -14.28148,-7.55941 17.006037,16.704991 0 0 1 -1.30402,-15.89384 17.006037,16.704991 0 0 1 14.28194,7.55907 17.006037,16.704991 0 0 1 1.30356,15.89418 z"
         id="path6502" />
      <path
         id="path6504"
         d="m 613.0871,502.46599 a 20.755619,20.388197 0 0 0 19.07819,-5.2031 20.755619,20.388197 0 0 0 5.92759,-18.56963 20.755619,20.388197 0 0 0 -19.07868,5.20258 20.755619,20.388197 0 0 0 -5.9271,18.57015 z"
         style="fill:#9acd32;fill-opacity:1;stroke:none;stroke-width:1.06871" />
      <path
         style="fill:#9acd32;fill-opacity:1;stroke:none;stroke-width:1.06871"
         d="m 614.11341,478.7872 a 16.430135,16.139284 0 0 0 15.10228,-4.11877 16.430135,16.139284 0 0 0 4.69226,-14.6997 16.430135,16.139284 0 0 0 -15.10267,4.11836 16.430135,16.139284 0 0 0 -4.69187,14.70011 z"
         id="path6506" />
      <path
         id="path6508"
         d="m 612.00237,459.67568 a 15.565038,15.289501 0 0 0 14.30711,-3.90189 15.565038,15.289501 0 0 0 4.44519,-13.92572 15.565038,15.289501 0 0 0 -14.30746,3.90151 15.565038,15.289501 0 0 0 -4.44484,13.9261 z"
         style="fill:#9acd32;fill-opacity:1;stroke:none;stroke-width:1.06871" />
      <path
         id="path6050"
         d="m 193.91985,656.15977 a 40.434453,39.71867 0 0 1 1.76537,37.84994 40.434453,39.71867 0 0 1 -31.40224,22.04243 40.434453,39.71867 0 0 1 -1.76659,-37.85052 40.434453,39.71867 0 0 1 31.40346,-22.04185 z"
         style="fill:#9acd32;fill-opacity:1;stroke:none;stroke-width:1.06871" />
      <path
         style="fill:#9acd32;fill-opacity:1;stroke:none;stroke-width:1.06871"
         d="m 152.50654,654.62742 a 36.367835,35.724041 0 0 1 -4.85409,33.74374 36.367835,35.724041 0 0 1 -31.49158,14.34801 36.367835,35.724041 0 0 1 4.85311,-33.74448 36.367835,35.724041 0 0 1 31.49256,-14.34727 z"
         id="path6052" />
      <path
         id="path6054"
         d="m 114.41719,643.37056 a 31.284563,30.730754 0 0 1 -4.1756,29.02726 31.284563,30.730754 0 0 1 -27.089876,12.34252 31.284563,30.730754 0 0 1 4.174775,-29.02788 31.284563,30.730754 0 0 1 27.090701,-12.3419 z"
         style="fill:#9acd32;fill-opacity:1;stroke:none;stroke-width:1.06871" />
      <path
         style="fill:#9acd32;fill-opacity:1;stroke:none;stroke-width:1.06871"
         d="m 83.959918,629.86269 a 28.2346,27.734783 0 0 1 -10.996537,24.15211 28.2346,27.734783 0 0 1 -26.631339,4.06363 28.2346,27.734783 0 0 1 10.995969,-24.15284 28.2346,27.734783 0 0 1 26.631907,-4.0629 z"
         id="path6056" />
      <path
         id="path6058"
         d="m 14.510434,588.97833 a 25.800217,25.343494 0 0 1 24.609411,-0.35869 25.800217,25.343494 0 0 1 13.69138,20.10803 25.800217,25.343494 0 0 1 -24.609838,0.35947 25.800217,25.343494 0 0 1 -13.690953,-20.10881 z"
         style="fill:#9acd32;fill-opacity:1;stroke:none;stroke-width:1.06871" />
      <path
         id="path6062"
         d="m 185.09771,641.87619 a 36.367835,35.724041 0 0 0 5.89592,-33.58323 36.367835,35.724041 0 0 0 -25.50758,-23.12962 36.367835,35.724041 0 0 0 -5.89707,33.58362 36.367835,35.724041 0 0 0 25.50873,23.12923 z"
         style="fill:#9acd32;fill-opacity:1;stroke:none;stroke-width:1.06871" />
      <path
         style="fill:#9acd32;fill-opacity:1;stroke:none;stroke-width:1.06871"
         d="m 144.09815,640.24255 a 31.284563,30.730754 0 0 0 5.07184,-28.88918 31.284563,30.730754 0 0 0 -21.94229,-19.89669 31.284563,30.730754 0 0 0 -5.07282,28.88951 31.284563,30.730754 0 0 0 21.94327,19.89636 z"
         id="path6064" />
      <path
         id="path6066"
         d="m 106.96787,628.6979 a 26.39881,25.931491 0 0 0 4.27976,-24.37752 26.39881,25.931491 0 0 0 -18.515542,-16.78939 26.39881,25.931491 0 0 0 -4.280574,24.37778 26.39881,25.931491 0 0 0 18.516356,16.78913 z"
         style="fill:#9acd32;fill-opacity:1;stroke:none;stroke-width:1.06871" />
      <path
         style="fill:#9acd32;fill-opacity:1;stroke:none;stroke-width:1.06871"
         d="m 74.998563,615.02948 a 23.326031,22.913107 0 0 0 3.781607,-21.54002 23.326031,22.913107 0 0 0 -16.360352,-14.83513 23.326031,22.913107 0 0 0 -3.782332,21.54025 23.326031,22.913107 0 0 0 16.361077,14.8349 z"
         id="path6068" />
      <path
         id="path6070"
         d="m 59.357458,619.53224 a 22.98316,22.576305 0 0 1 -12.661639,17.58229 22.98316,22.576305 0 0 1 -21.91964,-0.88332 22.98316,22.576305 0 0 1 12.661302,-17.58297 22.98316,22.576305 0 0 1 21.919977,0.884 z"
         style="fill:#9acd32;fill-opacity:1;stroke:none;stroke-width:1.06871" />
      <path
         style="fill:#9acd32;fill-opacity:1;stroke:none;stroke-width:1.06871"
         d="m 145.33926,548.66491 a 27.798429,27.306333 0 0 1 -9.1275,24.45724 27.798429,27.306333 0 0 1 -25.87569,5.77159 27.798429,27.306333 0 0 1 9.12689,-24.45792 27.798429,27.306333 0 0 1 25.8763,-5.77091 z"
         id="path3529" />
      <path
         id="path3531"
         d="m 124.98188,537.34776 a 25.002654,24.56005 0 0 1 -15.962,17.40909 25.002654,24.56005 0 0 1 -23.566578,-3.70034 25.002654,24.56005 0 0 1 15.961728,-17.40989 25.002654,24.56005 0 0 1 23.56685,3.70114 z"
         style="fill:#9acd32;fill-opacity:1;stroke:none;stroke-width:1.06871" />
      <path
         style="fill:#9acd32;fill-opacity:1;stroke:none;stroke-width:1.06871"
         d="m 107.13868,515.00705 a 21.507938,21.127198 0 0 1 -13.730931,14.97575 21.507938,21.127198 0 0 1 -20.272571,-3.18313 21.507938,21.127198 0 0 1 13.730691,-14.97643 21.507938,21.127198 0 0 1 20.272811,3.18381 z"
         id="path3533" />
      <path
         id="path3535"
         d="m 98.738892,497.36499 a 19.411107,19.067486 0 0 1 -15.71395,9.62249 19.411107,19.067486 0 0 1 -16.773971,-7.7307 19.411107,19.067486 0 0 1 15.713906,-9.62315 19.411107,19.067486 0 0 1 16.774015,7.73136 z"
         style="fill:#9acd32;fill-opacity:1;stroke:none;stroke-width:1.06871" />
      <path
         style="fill:#9acd32;fill-opacity:1;stroke:none;stroke-width:1.06871"
         d="m 77.231202,453.53851 a 17.737485,17.423491 0 0 1 14.172403,9.08039 17.737485,17.423491 0 0 1 -0.05574,16.63112 17.737485,17.423491 0 0 1 -14.17295,-9.08011 17.737485,17.423491 0 0 1 0.05629,-16.6314 z"
         id="path3537" />
      <path
         id="path3541"
         d="m 121.97148,518.52716 a 20.20645,19.848749 0 0 0 13.32942,-13.67791 20.20645,19.848749 0 0 0 -4.4452,-18.43616 20.20645,19.848749 0 0 0 -13.33005,13.67773 20.20645,19.848749 0 0 0 4.44583,18.43634 z"
         style="fill:#9acd32;fill-opacity:1;stroke:none;stroke-width:1.06871" />
      <path
         style="fill:#9acd32;fill-opacity:1;stroke:none;stroke-width:1.06871"
         d="m 107.3056,499.86045 a 18.149015,17.827736 0 0 0 11.9722,-12.2852 18.149015,17.827736 0 0 0 -3.99258,-16.55899 18.149015,17.827736 0 0 0 -11.97279,12.28505 18.149015,17.827736 0 0 0 3.99317,16.55914 z"
         id="path3543" />
      <path
         id="path3549"
         d="m 555.39402,393.67663 a 24.626569,24.190622 0 0 1 13.53301,-18.8631 24.626569,24.190622 0 0 1 23.48867,0.90559 24.626569,24.190622 0 0 1 -13.53264,18.86383 24.626569,24.190622 0 0 1 -23.48904,-0.90632 z"
         style="fill:#9acd32;fill-opacity:1;stroke:none;stroke-width:1.06871" />
      <path
         id="path3551"
         d="m 574.62412,293.57327 a 16.1979,15.91116 0 0 1 -8.62656,-12.59282 16.1979,15.91116 0 0 1 6.07523,-13.96608 16.1979,15.91116 0 0 1 8.62711,12.59278 16.1979,15.91116 0 0 1 -6.07578,13.96612 z"
         style="fill:#9acd32;fill-opacity:1;stroke:none;stroke-width:1.06871" />
      <path
         style="fill:#9acd32;fill-opacity:1;stroke:none;stroke-width:1.06871"
         d="m 541.59411,390.49208 a 26.562044,26.091835 0 0 1 -22.03128,-12.29569 26.562044,26.091835 0 0 1 -1.46944,-24.86352 26.562044,26.091835 0 0 1 22.03204,12.2952 26.562044,26.091835 0 0 1 1.46868,24.86401 z"
         id="path3553" />
      <path
         id="path3555"
         d="m 554.81327,364.80503 a 20.755619,20.388197 0 0 1 -18.03202,-8.03328 20.755619,20.388197 0 0 1 -2.93872,-19.24581 20.755619,20.388197 0 0 1 18.03257,8.03284 20.755619,20.388197 0 0 1 2.93817,19.24625 z"
         style="fill:#9acd32;fill-opacity:1;stroke:none;stroke-width:1.06871" />
      <path
         style="fill:#9acd32;fill-opacity:1;stroke:none;stroke-width:1.06871"
         d="m 563.57181,339.33522 a 17.006037,16.704991 0 0 1 -15.11031,-5.79991 17.006037,16.704991 0 0 1 -3.25925,-15.62065 17.006037,16.704991 0 0 1 15.11076,5.79951 17.006037,16.704991 0 0 1 3.2588,15.62105 z"
         id="path3557" />
      <path
         id="path3559"
         d="m 565.79051,317.87376 a 17.006037,16.704991 0 0 1 -12.68786,-9.93055 17.006037,16.704991 0 0 1 1.59006,-15.8687 17.006037,16.704991 0 0 1 12.68838,9.93031 17.006037,16.704991 0 0 1 -1.59058,15.86894 z"
         style="fill:#9acd32;fill-opacity:1;stroke:none;stroke-width:1.06871" />
      <path
         style="fill:#9acd32;fill-opacity:1;stroke:none;stroke-width:1.06871"
         d="m 564.91037,364.79618 a 20.755619,20.388197 0 0 0 19.77111,1.0478 20.755619,20.388197 0 0 0 11.64905,-15.74154 20.755619,20.388197 0 0 0 -19.77139,-1.04843 20.755619,20.388197 0 0 0 -11.64877,15.74217 z"
         id="path3561" />
      <path
         id="path3563"
         d="m 572.81447,338.40344 a 16.430135,16.139284 0 0 0 15.58891,1.59798 16.430135,16.139284 0 0 0 9.84485,-11.99192 16.430135,16.139284 0 0 0 -15.58911,-1.5985 16.430135,16.139284 0 0 0 -9.84465,11.99244 z"
         style="fill:#9acd32;fill-opacity:1;stroke:none;stroke-width:1.06871" />
      <path
         style="fill:#9acd32;fill-opacity:1;stroke:none;stroke-width:1.06871"
         d="m 575.46796,317.42675 a 15.565038,15.289501 0 0 0 14.78512,-1.34412 15.565038,15.289501 0 0 0 6.89209,-12.92895 15.565038,15.289501 0 0 0 -14.78538,1.34368 15.565038,15.289501 0 0 0 -6.89183,12.92939 z"
         id="path3565" />
      <path
         style="fill:#9acd32;fill-opacity:1;stroke:none;stroke-width:1.06871"
         d="m 570.75151,451.53623 a 12.973675,12.744011 0 0 1 4.61977,-11.27842 12.973675,12.744011 0 0 1 12.15588,-2.32277 12.973675,12.744011 0 0 1 -4.61949,11.27875 12.973675,12.744011 0 0 1 -12.15616,2.32244 z"
         id="path3567" />
      <path
         style="fill:#9acd32;fill-opacity:1;stroke:none;stroke-width:1.06871"
         d="m 491.05576,393.53946 a 21.204621,20.829251 0 0 0 -12.32837,-15.75324 21.204621,20.829251 0 0 0 -20.17451,1.60316 21.204621,20.829251 0 0 0 12.3281,15.75388 21.204621,20.829251 0 0 0 20.17478,-1.6038 z"
         id="path3571" />
      <path
         style="fill:#9acd32;fill-opacity:1;stroke:none;stroke-width:1.06871"
         d="m 507.64115,324.93999 a 13.947146,13.70025 0 0 0 11.51399,-6.54891 13.947146,13.70025 0 0 0 0.66282,-13.06105 13.947146,13.70025 0 0 0 -11.51439,6.54866 13.947146,13.70025 0 0 0 -0.66242,13.0613 z"
         id="path3573" />
      <path
         id="path3575"
         d="m 544.62626,410.12108 a 25.383336,24.933993 0 0 0 21.08965,11.68754 25.383336,24.933993 0 0 0 21.46336,-11.04259 25.383336,24.933993 0 0 0 -21.08962,-11.68839 25.383336,24.933993 0 0 0 -21.46339,11.04344 z"
         style="fill:#9acd32;fill-opacity:1;stroke:none;stroke-width:1.06871" />
      <path
         style="fill:#9acd32;fill-opacity:1;stroke:none;stroke-width:1.06871"
         d="m 502.69133,411.66193 a 20.981268,20.609851 0 0 0 19.83112,-2.6598 20.981268,20.609851 0 0 0 8.51162,-17.80754 20.981268,20.609851 0 0 0 -19.83149,2.65924 20.981268,20.609851 0 0 0 -8.51125,17.8081 z"
         id="path3577" />
      <path
         id="path3579"
         d="m 498.09009,355.66374 a 14.64299,14.383775 0 0 0 13.92278,1.1118 14.64299,14.383775 0 0 0 8.52294,-10.88178 14.64299,14.383775 0 0 0 -13.92296,-1.11226 14.64299,14.383775 0 0 0 -8.52276,10.88224 z"
         style="fill:#9acd32;fill-opacity:1;stroke:none;stroke-width:1.06871" />
      <path
         style="fill:#9acd32;fill-opacity:1;stroke:none;stroke-width:1.06871"
         d="m 504.09053,341.33365 a 14.64299,14.383775 0 0 0 13.6346,-2.98306 14.64299,14.383775 0 0 0 4.86507,-12.87116 14.64299,14.383775 0 0 0 -13.6349,2.98269 14.64299,14.383775 0 0 0 -4.86477,12.87153 z"
         id="path3581" />
      <path
         id="path3583"
         d="m 489.47083,372.84672 a 17.871553,17.555186 0 0 1 -16.9493,-1.80472 17.871553,17.555186 0 0 1 -7.67537,-14.96499 17.871553,17.555186 0 0 1 16.94963,1.80424 17.871553,17.555186 0 0 1 7.67504,14.96547 z"
         style="fill:#9acd32;fill-opacity:1;stroke:none;stroke-width:1.06871" />
      <path
         style="fill:#9acd32;fill-opacity:1;stroke:none;stroke-width:1.06871"
         d="m 490.76808,354.61943 a 14.14711,13.896674 0 0 1 -12.67908,-4.54132 14.14711,13.896674 0 0 1 -3.01304,-12.93035 14.14711,13.896674 0 0 1 12.67941,4.54098 14.14711,13.896674 0 0 1 3.01271,12.93069 z"
         id="path3585" />
      <path
         id="path3587"
         d="m 496.77225,337.4007 a 13.402222,13.164972 0 0 1 -10.92683,-6.52047 13.402222,13.164972 0 0 1 -0.36778,-12.56113 13.402222,13.164972 0 0 1 10.9272,6.52022 13.402222,13.164972 0 0 1 0.36741,12.56138 z"
         style="fill:#9acd32;fill-opacity:1;stroke:none;stroke-width:1.06871" />
      <path
         id="path3589"
         d="m 495.26722,422.26275 a 26.699666,26.227021 0 0 0 -15.52319,-19.8356 26.699666,26.227021 0 0 0 -25.40261,2.0186 26.699666,26.227021 0 0 0 15.52283,19.83641 26.699666,26.227021 0 0 0 25.40297,-2.01941 z"
         style="fill:#9acd32;fill-opacity:1;stroke:none;stroke-width:1.06871" />
      <path
         id="path3593"
         d="m 521.55458,474.13305 a 18.210926,17.888551 0 0 1 -2.57879,-16.87574 18.210926,17.888551 0 0 1 13.02649,-11.30599 18.210926,17.888551 0 0 1 2.57938,16.87593 18.210926,17.888551 0 0 1 -13.02708,11.3058 z"
         style="fill:#9acd32;fill-opacity:1;stroke:none;stroke-width:1.06871" />
      <path
         style="fill:#9acd32;fill-opacity:1;stroke:none;stroke-width:1.06871"
         d="m 541.3922,468.89688 a 14.921052,14.656915 0 0 1 -2.11293,-13.82708 14.921052,14.656915 0 0 1 10.67319,-9.26351 14.921052,14.656915 0 0 1 2.11342,13.82722 14.921052,14.656915 0 0 1 -10.67368,9.26337 z"
         id="path3595" />
      <path
         id="path3597"
         d="m 558.17136,457.98498 a 14.921052,14.656915 0 0 1 -2.11295,-13.82707 14.921052,14.656915 0 0 1 10.6732,-9.26353 14.921052,14.656915 0 0 1 2.11341,13.82725 14.921052,14.656915 0 0 1 -10.67366,9.26335 z"
         style="fill:#9acd32;fill-opacity:1;stroke:none;stroke-width:1.06871" />
      <path
         id="path3601"
         d="m 542.6756,475.67558 a 14.921052,14.656915 0 0 0 8.62785,11.12062 14.921052,14.656915 0 0 0 14.20087,-1.06976 14.921052,14.656915 0 0 0 -8.62762,-11.12108 14.921052,14.656915 0 0 0 -14.2011,1.07022 z"
         style="fill:#9acd32;fill-opacity:1;stroke:none;stroke-width:1.06871" />
      <path
         style="fill:#9acd32;fill-opacity:1;stroke:none;stroke-width:1.06871"
         d="m 560.22796,465.76234 a 14.921052,14.656915 0 0 0 8.62784,11.12062 14.921052,14.656915 0 0 0 14.20087,-1.06976 14.921052,14.656915 0 0 0 -8.62763,-11.12108 14.921052,14.656915 0 0 0 -14.20108,1.07022 z"
         id="path3603" />
      <path
         id="path3605"
         d="m 530.74265,501.17911 a 12.973675,12.744011 0 0 1 4.61979,-11.27843 12.973675,12.744011 0 0 1 12.15587,-2.32278 12.973675,12.744011 0 0 1 -4.61949,11.27876 12.973675,12.744011 0 0 1 -12.15617,2.32245 z"
         style="fill:#9acd32;fill-opacity:1;stroke:none;stroke-width:1.06871" />
      <path
         style="fill:#9acd32;fill-opacity:1;stroke:none;stroke-width:1.06871"
         d="m 468.09013,565.61281 a 22.370761,21.974747 0 0 1 -10.81573,-18.07109 22.370761,21.974747 0 0 1 9.5686,-18.75171 22.370761,21.974747 0 0 1 10.81649,18.07105 22.370761,21.974747 0 0 1 -9.56936,18.75175 z"
         id="path3607" />
      <path
         id="path3609"
         d="m 488.48593,550.17288 a 17.671486,17.35866 0 0 1 -11.13573,-12.43211 17.671486,17.35866 0 0 1 4.57313,-15.94875 17.671486,17.35866 0 0 1 11.13633,12.43196 17.671486,17.35866 0 0 1 -4.57373,15.9489 z"
         style="fill:#9acd32;fill-opacity:1;stroke:none;stroke-width:1.06871" />
      <path
         style="fill:#9acd32;fill-opacity:1;stroke:none;stroke-width:1.06871"
         d="m 504.20638,534.95162 a 16.51748,16.225083 0 0 1 -10.4972,-11.54305 16.51748,16.225083 0 0 1 4.16028,-14.93839 16.51748,16.225083 0 0 1 10.49775,11.54291 16.51748,16.225083 0 0 1 -4.16083,14.93853 z"
         id="path3611" />
      <path
         id="path3613"
         d="m 515.697,518.89981 a 14.216829,13.965159 0 0 1 -7.43082,-11.14446 14.216829,13.965159 0 0 1 5.48722,-12.19178 14.216829,13.965159 0 0 1 7.43128,11.14439 14.216829,13.965159 0 0 1 -5.48768,12.19185 z"
         style="fill:#9acd32;fill-opacity:1;stroke:none;stroke-width:1.06871" />
      <path
         id="path3615"
         d="m 465.90166,583.9462 a 23.524813,23.10837 0 0 0 15.14767,16.26496 23.524813,23.10837 0 0 0 22.14538,-3.6508 23.524813,23.10837 0 0 0 -15.14738,-16.26567 23.524813,23.10837 0 0 0 -22.14567,3.65151 z"
         style="fill:#9acd32;fill-opacity:1;stroke:none;stroke-width:1.06871" />
      <path
         style="fill:#9acd32;fill-opacity:1;stroke:none;stroke-width:1.06871"
         d="m 485.45394,567.53642 a 17.671486,17.35866 0 0 0 10.64462,12.84051 17.671486,17.35866 0 0 0 16.76829,-1.79823 17.671486,17.35866 0 0 0 -10.64438,-12.84106 17.671486,17.35866 0 0 0 -16.76853,1.79878 z"
         id="path3617" />
      <path
         id="path3619"
         d="m 499.64661,553.26696 a 16.51748,16.225083 0 0 0 9.85735,12.07515 16.51748,16.225083 0 0 0 15.68569,-1.565 16.51748,16.225083 0 0 0 -9.85712,-12.07564 16.51748,16.225083 0 0 0 -15.68592,1.56549 z"
         style="fill:#9acd32;fill-opacity:1;stroke:none;stroke-width:1.06871" />
      <path
         style="fill:#9acd32;fill-opacity:1;stroke:none;stroke-width:1.06871"
         d="m 467.80962,618.12907 a 14.216829,13.965159 0 0 0 13.52369,1.00288 14.216829,13.965159 0 0 0 8.21276,-10.61177 14.216829,13.965159 0 0 0 -13.52386,-1.00333 14.216829,13.965159 0 0 0 -8.21259,10.61222 z"
         id="path3621" />
      <path
         id="path3623"
         d="m 539.33052,528.46786 a 12.984785,12.754925 0 0 1 -3.85603,-11.56299 12.984785,12.754925 0 0 1 7.78933,-9.4702 12.984785,12.754925 0 0 1 3.85645,11.56306 12.984785,12.754925 0 0 1 -7.78975,9.47013 z"
         style="fill:#9acd32;fill-opacity:1;stroke:none;stroke-width:1.06871" />
      <path
         id="path3625"
         d="m 446.39434,527.11868 a 14.216829,13.965159 0 0 0 13.44884,-1.71868 14.216829,13.965159 0 0 0 5.84506,-12.03023 14.216829,13.965159 0 0 0 -13.4491,1.71829 14.216829,13.965159 0 0 0 -5.8448,12.03062 z"
         style="fill:#9acd32;fill-opacity:1;stroke:none;stroke-width:1.06871" />
      <path
         style="fill:#9acd32;fill-opacity:1;stroke:none;stroke-width:1.06871"
         d="m 434.48405,535.35993 a 16.77484,16.477887 0 0 0 4.8517,-14.97925 16.77484,16.477887 0 0 0 -10.16875,-12.14962 16.77484,16.477887 0 0 0 -4.85227,14.97929 16.77484,16.477887 0 0 0 10.16932,12.14958 z"
         id="path3627" />
      <path
         id="path3629"
         d="m 423.74798,548.70109 a 17.905584,17.588614 0 0 0 -0.0207,-16.77869 17.905584,17.588614 0 0 0 -14.35729,-9.10853 17.905584,17.588614 0 0 0 0.0202,16.77891 17.905584,17.588614 0 0 0 14.35785,9.10831 z"
         style="fill:#9acd32;fill-opacity:1;stroke:none;stroke-width:1.06871" />
      <path
         style="fill:#9acd32;fill-opacity:1;stroke:none;stroke-width:1.06871"
         d="m 416.43809,564.2456 a 19.922525,19.569851 0 0 0 -5.65847,-17.82207 19.922525,19.569851 0 0 0 -18.31565,-5.02484 19.922525,19.569851 0 0 0 5.65791,17.82251 19.922525,19.569851 0 0 0 18.3162,5.0244 z"
         id="path3631" />
      <path
         id="path3633"
         d="m 428.12967,567.45678 a 17.671486,17.35866 0 0 0 16.50924,3.34968 17.671486,17.35866 0 0 0 11.84311,-11.79852 17.671486,17.35866 0 0 0 -16.5094,-3.35025 17.671486,17.35866 0 0 0 -11.84295,11.79909 z"
         style="fill:#9acd32;fill-opacity:1;stroke:none;stroke-width:1.06871" />
      <path
         style="fill:#9acd32;fill-opacity:1;stroke:none;stroke-width:1.06871"
         d="m 433.4854,551.73257 a 14.216829,13.965159 0 0 0 13.56207,-0.0496 14.216829,13.965159 0 0 0 7.3338,-11.21583 14.216829,13.965159 0 0 0 -13.56228,0.0492 14.216829,13.965159 0 0 0 -7.33359,11.21626 z"
         id="path3635" />
      <path
         style="fill:#9acd32;fill-opacity:1;stroke:none;stroke-width:1.06871"
         d="m 683.07372,660.28536 a 23.739118,23.318881 0 0 0 10.76994,19.56838 23.739118,23.318881 0 0 0 22.58892,1.75755 23.739118,23.318881 0 0 0 -10.76953,-19.56903 23.739118,23.318881 0 0 0 -22.58933,-1.7569 z"
         id="path3637" />
      <path
         style="fill:#9acd32;fill-opacity:1;stroke:none;stroke-width:1.06871"
         d="m 290.03765,510.28062 a 24.626569,24.190622 0 0 1 15.19659,-17.59829 24.626569,24.190622 0 0 1 23.31202,2.96598 24.626569,24.190622 0 0 1 -15.19628,17.59905 24.626569,24.190622 0 0 1 -23.31233,-2.96674 z"
         id="path3639" />
      <path
         style="fill:#9acd32;fill-opacity:1;stroke:none;stroke-width:1.06871"
         d="m 425.68379,251.54731 a 16.1979,15.91116 0 0 1 -13.01734,-8.17805 16.1979,15.91116 0 0 1 -0.0875,-15.18741 16.1979,15.91116 0 0 1 13.01783,8.1778 16.1979,15.91116 0 0 1 0.087,15.18766 z"
         id="path3641" />
      <path
         id="path3643"
         d="m 316.72668,291.94513 a 19.652414,19.304521 0 0 1 -9.34826,-15.96276 19.652414,19.304521 0 0 1 8.56405,-16.39433 19.652414,19.304521 0 0 1 9.34894,15.96273 19.652414,19.304521 0 0 1 -8.56473,16.39436 z"
         style="fill:#9acd32;fill-opacity:1;stroke:none;stroke-width:1.06871" />
      <path
         style="fill:#9acd32;fill-opacity:1;stroke:none;stroke-width:1.06871"
         d="m 438.48707,310.15878 a 20.755619,20.388197 0 0 1 -19.79722,-0.31715 20.755619,20.388197 0 0 1 -10.49621,-16.50545 20.755619,20.388197 0 0 1 19.79754,0.31653 20.755619,20.388197 0 0 1 10.49589,16.50607 z"
         id="path3645" />
      <path
         id="path3647"
         d="m 434.05499,282.18253 a 20.427148,20.065541 0 0 1 -18.29554,6.58926 20.427148,20.065541 0 0 1 -15.58455,-11.51023 20.427148,20.065541 0 0 1 18.2956,-6.58997 20.427148,20.065541 0 0 1 15.58449,11.51094 z"
         style="fill:#9acd32;fill-opacity:1;stroke:none;stroke-width:1.06871" />
      <path
         style="fill:#9acd32;fill-opacity:1;stroke:none;stroke-width:1.06871"
         d="m 427.25693,262.75249 a 17.006037,16.704991 0 0 1 -15.70531,3.99338 17.006037,16.704991 0 0 1 -11.95623,-10.78513 17.006037,16.704991 0 0 1 15.7054,-3.99395 17.006037,16.704991 0 0 1 11.95614,10.7857 z"
         id="path3649" />
      <path
         id="path3651"
         d="m 437.74362,276.20929 a 20.755619,20.388197 0 0 0 18.56128,-6.77096 20.755619,20.388197 0 0 0 4.30587,-18.99593 20.755619,20.388197 0 0 0 -18.5618,6.7705 20.755619,20.388197 0 0 0 -4.30535,18.99639 z"
         style="fill:#9acd32;fill-opacity:1;stroke:none;stroke-width:1.06871" />
      <path
         style="fill:#9acd32;fill-opacity:1;stroke:none;stroke-width:1.06871"
         d="m 503.25979,256.14688 a 16.430135,16.139284 0 0 0 14.94783,-4.63067 16.430135,16.139284 0 0 0 4.17056,-14.85068 16.430135,16.139284 0 0 0 -14.9482,4.63028 16.430135,16.139284 0 0 0 -4.17019,14.85107 z"
         id="path3653" />
      <path
         id="path3655"
         d="m 430.86149,257.06827 a 15.565038,15.289501 0 0 0 13.01803,-7.0152 15.565038,15.289501 0 0 0 1.08214,-14.55547 15.565038,15.289501 0 0 0 -13.01845,7.0149 15.565038,15.289501 0 0 0 -1.08172,14.55577 z"
         style="fill:#9acd32;fill-opacity:1;stroke:none;stroke-width:1.06871" />
      <path
         style="fill:#9acd32;fill-opacity:1;stroke:none;stroke-width:1.06871"
         d="m 381.1475,412.21965 a 22.831832,22.427656 0 0 0 13.60534,-16.70722 22.831832,22.427656 0 0 0 -6.88521,-20.31137 22.831832,22.427656 0 0 0 -13.60611,16.70705 22.831832,22.427656 0 0 0 6.88598,20.31154 z"
         id="path3657" />
      <path
         style="fill:#9acd32;fill-opacity:1;stroke:none;stroke-width:1.06871"
         d="m 496.04314,282.39353 a 15.797735,15.518079 0 0 0 13.26895,7.01833 15.797735,15.518079 0 0 0 13.21751,-7.1299 15.797735,15.518079 0 0 0 -13.26892,-7.01888 15.797735,15.518079 0 0 0 -13.21754,7.13045 z"
         id="path3659" />
      <path
         id="path3661"
         d="m 499.93743,270.59373 a 14.64299,14.383775 0 0 0 13.70754,2.64089 14.64299,14.383775 0 0 0 9.71332,-9.87256 14.64299,14.383775 0 0 0 -13.70767,-2.64138 14.64299,14.383775 0 0 0 -9.71319,9.87305 z"
         style="fill:#9acd32;fill-opacity:1;stroke:none;stroke-width:1.06871" />
      <path
         id="path3663"
         d="m 487.70505,298.42813 a 16.952482,16.652384 0 0 0 14.23886,7.53134 16.952482,16.652384 0 0 0 14.18367,-7.65106 16.952482,16.652384 0 0 0 -14.23883,-7.53193 16.952482,16.652384 0 0 0 -14.1837,7.65165 z"
         style="fill:#9acd32;fill-opacity:1;stroke:none;stroke-width:1.06871" />
      <path
         id="path3665"
         d="m 492.24376,274.30469 a 14.64299,14.383775 0 0 1 -13.57925,-3.2176 14.64299,14.383775 0 0 1 -4.63439,-12.95303 14.64299,14.383775 0 0 1 13.57956,3.21722 14.64299,14.383775 0 0 1 4.63408,12.95341 z"
         style="fill:#9acd32;fill-opacity:1;stroke:none;stroke-width:1.06871" />
      <path
         style="fill:#9acd32;fill-opacity:1;stroke:none;stroke-width:1.06871"
         d="m 498.26534,260.93387 a 14.64299,14.383775 0 0 1 -12.00282,-7.01894 14.64299,14.383775 0 0 1 -0.52682,-13.71996 14.64299,14.383775 0 0 1 12.00324,7.01868 14.64299,14.383775 0 0 1 0.5264,13.72022 z"
         id="path3667" />
      <path
         style="fill:#9acd32;fill-opacity:1;stroke:none;stroke-width:1.06871"
         d="m 484.66379,290.68434 a 17.131518,16.828251 0 0 1 -15.88698,-3.76443 17.131518,16.828251 0 0 1 -5.42198,-15.15434 17.131518,16.828251 0 0 1 15.88735,3.76397 17.131518,16.828251 0 0 1 5.42161,15.1548 z"
         id="path3669" />
      <path
         style="fill:#9acd32;fill-opacity:1;stroke:none;stroke-width:1.06871"
         d="m 447.2674,309.26792 a 17.026182,16.72478 0 0 0 16.01036,-2.68581 17.026182,16.72478 0 0 0 6.41138,-14.6695 17.026182,16.72478 0 0 0 -16.01072,2.68532 17.026182,16.72478 0 0 0 -6.41102,14.66999 z"
         id="path3671" />
      <path
         id="path3673"
         d="m 361.44551,398.14269 a 20.776492,20.4087 0 0 0 12.38059,-15.20321 20.776492,20.4087 0 0 0 -6.2654,-18.48292 20.776492,20.4087 0 0 0 -12.38129,15.20307 20.776492,20.4087 0 0 0 6.2661,18.48306 z"
         style="fill:#9acd32;fill-opacity:1;stroke:none;stroke-width:1.06871" />
      <path
         style="fill:#9acd32;fill-opacity:1;stroke:none;stroke-width:1.06871"
         d="m 342.98409,374.38618 a 17.319867,17.784057 31.552671 0 0 14.19338,-9.13546 17.319867,17.784057 31.552671 0 0 0.4172,-16.85518 17.319867,17.784057 31.552671 0 0 -14.1939,9.13514 17.319867,17.784057 31.552671 0 0 -0.41668,16.8555 z"
         id="path3675" />
      <path
         id="path3677"
         d="m 330.00692,350.4941 a 17.261176,17.844527 44.466398 0 0 15.73939,-6.22934 17.261176,17.844527 44.466398 0 0 3.7682,-16.44882 17.261176,17.844527 44.466398 0 0 -15.73981,6.22893 17.261176,17.844527 44.466398 0 0 -3.76778,16.44923 z"
         style="fill:#9acd32;fill-opacity:1;stroke:none;stroke-width:1.06871" />
      <path
         style="fill:#9acd32;fill-opacity:1;stroke:none;stroke-width:1.06871"
         d="m 323.3252,325.38817 a 17.236606,17.869963 48.910119 0 0 16.19567,-4.97435 17.236606,17.869963 48.910119 0 0 5.09386,-16.10056 17.236606,17.869963 48.910119 0 0 -16.19607,4.97392 17.236606,17.869963 48.910119 0 0 -5.09346,16.10099 z"
         id="path3679" />
      <path
         style="fill:#9acd32;fill-opacity:1;stroke:none;stroke-width:1.06871"
         d="m 384.54439,291.76354 a 15.034788,14.768638 0 0 1 -7.15176,-12.21208 15.034788,14.768638 0 0 1 6.55181,-12.54223 15.034788,14.768638 0 0 1 7.15226,12.21204 15.034788,14.768638 0 0 1 -6.55231,12.54227 z"
         id="path3681" />
      <path
         style="fill:#9acd32;fill-opacity:1;stroke:none;stroke-width:1.06871"
         d="m 411.47305,357.21176 a 19.67888,19.330519 0 0 0 18.16451,-4.65585 19.67888,19.330519 0 0 0 5.89852,-17.51816 19.67888,19.330519 0 0 0 -18.16495,4.65533 19.67888,19.330519 0 0 0 -5.89808,17.51868 z"
         id="path3683" />
      <path
         id="path3685"
         d="m 400.93111,342.77683 a 18.839565,18.506061 0 0 0 17.38979,-4.45727 18.839565,18.506061 0 0 0 5.64694,-16.771 18.839565,18.506061 0 0 0 -17.3902,4.45678 18.839565,18.506061 0 0 0 -5.64653,16.77149 z"
         style="fill:#9acd32;fill-opacity:1;stroke:none;stroke-width:1.06871" />
      <path
         style="fill:#9acd32;fill-opacity:1;stroke:none;stroke-width:1.06871"
         d="m 392.44177,326.45042 a 14.64299,14.383775 0 0 0 13.51617,-3.4644 14.64299,14.383775 0 0 0 4.38906,-13.03521 14.64299,14.383775 0 0 0 -13.51648,3.46402 14.64299,14.383775 0 0 0 -4.38875,13.03559 z"
         id="path3687" />
      <path
         id="path3689"
         d="m 387.17746,311.45414 a 14.64299,14.383775 0 0 0 13.51615,-3.4644 14.64299,14.383775 0 0 0 4.38907,-13.03521 14.64299,14.383775 0 0 0 -13.51648,3.46402 14.64299,14.383775 0 0 0 -4.38874,13.03559 z"
         style="fill:#9acd32;fill-opacity:1;stroke:none;stroke-width:1.06871" />
      <path
         style="fill:#9acd32;fill-opacity:1;stroke:none;stroke-width:1.06871"
         d="m 403.01562,365.55754 a 17.871553,17.555186 0 0 1 -15.9974,5.78949 17.871553,17.555186 0 0 1 -13.65084,-10.04931 17.871553,17.555186 0 0 1 15.99749,-5.79006 17.871553,17.555186 0 0 1 13.65075,10.04988 z"
         id="path3691" />
      <path
         id="path3693"
         d="m 385.11694,325.08675 a 16.602249,16.434706 0 0 1 -14.86123,5.41995 16.602249,16.434706 0 0 1 -12.6813,-9.40788 16.602249,16.434706 0 0 1 14.86129,-5.42051 16.602249,16.434706 0 0 1 12.68124,9.40844 z"
         style="fill:#9acd32;fill-opacity:1;stroke:none;stroke-width:1.06871" />
      <path
         style="fill:#9acd32;fill-opacity:1;stroke:none;stroke-width:1.06871"
         d="m 391.96054,346.42436 a 17.236902,17.555186 0 0 1 -15.42931,5.78948 17.236902,17.555186 0 0 1 -13.16607,-10.0493 17.236902,17.555186 0 0 1 15.4294,-5.79007 17.236902,17.555186 0 0 1 13.16598,10.04989 z"
         id="path3695" />
      <path
         style="fill:#9acd32;fill-opacity:1;stroke:none;stroke-width:1.06871"
         d="m 381.50261,309.91318 a 16.412033,16.625185 78.765281 0 1 -15.85182,0.13862 16.412033,16.625185 78.765281 0 1 -8.67369,-13.08004 16.412033,16.625185 78.765281 0 1 15.85207,-0.13911 16.412033,16.625185 78.765281 0 1 8.67344,13.08053 z"
         id="path3697" />
      <path
         style="fill:#9acd32;fill-opacity:1;stroke:none;stroke-width:1.06871"
         d="m 546.12587,587.46326 a 18.895759,18.618061 0 0 0 17.34164,-4.84621 18.895759,18.618061 0 0 0 5.30086,-16.98661 18.895759,18.618061 0 0 0 -17.34207,4.84572 18.895759,18.618061 0 0 0 -5.30043,16.9871 z"
         id="path3701" />
      <path
         id="path3703"
         d="m 538.25179,548.0706 a 14.64299,14.383775 0 0 0 13.24311,-4.36491 14.64299,14.383775 0 0 0 3.47058,-13.29974 14.64299,14.383775 0 0 0 -13.24341,4.36458 14.64299,14.383775 0 0 0 -3.47025,13.30007 z"
         style="fill:#9acd32;fill-opacity:1;stroke:none;stroke-width:1.06871" />
      <path
         id="path3705"
         d="m 540.79421,566.32332 a 15.493544,16.07749 0 0 0 14.21924,-4.18491 15.493544,16.07749 0 0 0 4.34645,-14.66865 15.493544,16.07749 0 0 0 -14.21961,4.18446 15.493544,16.07749 0 0 0 -4.34608,14.6691 z"
         style="fill:#9acd32;fill-opacity:1;stroke:none;stroke-width:1.06871" />
      <path
         style="fill:#9acd32;fill-opacity:1;stroke:none;stroke-width:1.06871"
         d="m 458.49491,484.83993 a 24.626569,24.190622 0 0 0 11.58322,20.07659 24.626569,24.190622 0 0 0 23.46577,1.363 24.626569,24.190622 0 0 0 -11.58278,-20.07727 24.626569,24.190622 0 0 0 -23.46621,-1.36232 z"
         id="path3707" />
      <path
         style="fill:#9acd32;fill-opacity:1;stroke:none;stroke-width:1.06871"
         d="m 530.74949,548.58772 a 14.64299,14.383775 0 0 1 -13.2431,-4.36492 14.64299,14.383775 0 0 1 -3.47061,-13.29974 14.64299,14.383775 0 0 1 13.24343,4.36459 14.64299,14.383775 0 0 1 3.47025,13.30007 z"
         id="path3709" />
      <path
         id="path3711"
         d="m 536.01036,599.88485 a 18.912952,18.601136 4.6500936 0 1 -17.42358,4.55381 18.912952,18.601136 4.6500936 0 1 -13.40362,-11.92917 18.912952,18.601136 4.6500936 0 1 17.42369,-4.55445 18.912952,18.601136 4.6500936 0 1 13.40351,11.92981 z"
         style="fill:#9acd32;fill-opacity:1;stroke:none;stroke-width:1.06871" />
      <path
         style="fill:#9acd32;fill-opacity:1;stroke:none;stroke-width:1.06871"
         d="m 533.37819,577.37772 a 13.098262,12.017573 0.89289197 0 1 -12.06785,2.9418 13.098262,12.017573 0.89289197 0 1 -9.28356,-7.70636 13.098262,12.017573 0.89289197 0 1 12.06794,-2.94221 13.098262,12.017573 0.89289197 0 1 9.28347,7.70677 z"
         id="path3713" />
      <path
         style="fill:#9acd32;fill-opacity:1;stroke:none;stroke-width:1.06871"
         d="m 451.73343,647.53909 a 14.64299,14.383775 0 0 0 13.54661,3.34772 14.64299,14.383775 0 0 0 10.23007,-9.35538 14.64299,14.383775 0 0 0 -13.54669,-3.34816 14.64299,14.383775 0 0 0 -10.22996,9.35583 z"
         id="path3715" />
      <path
         style="fill:#9acd32;fill-opacity:1;stroke:none;stroke-width:1.06871"
         d="m 451.09997,671.67746 a 15.486638,16.08466 11.005587 0 0 14.65364,-2.32622 15.486638,16.08466 11.005587 0 0 6.25816,-13.98598 15.486638,16.08466 11.005587 0 0 -14.65394,2.32575 15.486638,16.08466 11.005587 0 0 -6.25786,13.98645 z"
         id="path3717" />
      <path
         id="path3719"
         d="m 459.10349,632.0257 a 14.64299,14.383775 0 0 0 13.54659,3.34772 14.64299,14.383775 0 0 0 10.23009,-9.35539 14.64299,14.383775 0 0 0 -13.54669,-3.34816 14.64299,14.383775 0 0 0 -10.22997,9.35584 z"
         style="fill:#9acd32;fill-opacity:1;stroke:none;stroke-width:1.06871" />
      <path
         id="path3721"
         d="m 604.18533,576.62201 a 25.567662,26.461697 0 0 0 4.36163,24.83623 25.567662,26.461697 0 0 0 22.527,9.71667 25.567662,26.461697 0 0 0 -4.361,-24.83681 25.567662,26.461697 0 0 0 -22.52763,-9.71609 z"
         style="fill:#9acd32;fill-opacity:1;stroke:none;stroke-width:1.06871" />
      <path
         id="path3723"
         d="m 296.49168,388.2642 a 16.976798,16.67627 0 0 1 -6.30809,-14.65195 16.976798,16.67627 0 0 1 9.09679,-13.17323 16.976798,16.67627 0 0 1 6.30866,14.65199 16.976798,16.67627 0 0 1 -9.09736,13.17319 z"
         style="fill:#9acd32;fill-opacity:1;stroke:none;stroke-width:1.06871" />
      <path
         style="fill:#9acd32;fill-opacity:1;stroke:none;stroke-width:1.06871"
         d="m 293.04735,341.69105 a 19.642449,19.294733 0 0 1 18.66681,1.60211 19.642449,19.294733 0 0 1 8.78275,16.27173 19.642449,19.294733 0 0 1 -18.66716,-1.60155 19.642449,19.294733 0 0 1 -8.7824,-16.27229 z"
         id="path3725" />
      <path
         id="path3727"
         d="m 291.22323,319.55941 a 17.929763,17.179117 31.316378 0 1 16.87437,1.75724 17.929763,17.179117 31.316378 0 1 8.20989,14.80634 17.929763,17.179117 31.316378 0 1 -16.87467,-1.75673 17.929763,17.179117 31.316378 0 1 -8.20959,-14.80685 z"
         style="fill:#9acd32;fill-opacity:1;stroke:none;stroke-width:1.06871" />
      <path
         style="fill:#9acd32;fill-opacity:1;stroke:none;stroke-width:1.06871"
         d="m 287.10924,299.35043 a 17.968072,17.14249 24.875331 0 1 16.95626,-0.64356 17.968072,17.14249 24.875331 0 1 10.29121,13.49343 17.968072,17.14249 24.875331 0 1 -16.9565,0.64409 17.968072,17.14249 24.875331 0 1 -10.29097,-13.49396 z"
         id="path3729" />
      <path
         id="path3731"
         d="m 223.33948,330.75182 a 17.88915,17.218119 37.902418 0 1 16.47525,3.99134 17.88915,17.218119 37.902418 0 1 6.08749,15.76411 17.88915,17.218119 37.902418 0 1 -16.47563,-3.99087 17.88915,17.218119 37.902418 0 1 -6.08711,-15.76458 z"
         style="fill:#9acd32;fill-opacity:1;stroke:none;stroke-width:1.06871" />
      <path
         style="fill:#9acd32;fill-opacity:1;stroke:none;stroke-width:1.06871"
         d="m 142.74653,357.75114 a 15.056638,15.38538 15.567348 0 1 7.14807,12.63542 15.056638,15.38538 15.567348 0 1 -6.59783,13.10666 15.056638,15.38538 15.567348 0 1 -7.14859,-12.63539 15.056638,15.38538 15.567348 0 1 6.59835,-13.10669 z"
         id="path3733" />
      <path
         id="path3735"
         d="m 212.71993,371.811 a 17.361913,17.740989 15.56734 0 1 8.2425,14.57 17.361913,17.740989 15.56734 0 1 -7.60802,15.11338 17.361913,17.740989 15.56734 0 1 -8.24309,-14.56996 17.361913,17.740989 15.56734 0 1 7.60861,-15.11342 z"
         style="fill:#9acd32;fill-opacity:1;stroke:none;stroke-width:1.06871" />
      <path
         style="fill:#9acd32;fill-opacity:1;stroke:none;stroke-width:1.06871"
         d="m 234.8301,484.54169 a 17.361913,17.740989 15.56734 0 1 8.24248,14.57 17.361913,17.740989 15.56734 0 1 -7.608,15.11338 17.361913,17.740989 15.56734 0 1 -8.2431,-14.56997 17.361913,17.740989 15.56734 0 1 7.60862,-15.11341 z"
         id="path3737" />
      <path
         id="path3739"
         d="m 277.44123,398.47179 a 17.728754,17.373895 86.931831 0 1 10.73127,12.91204 17.728754,17.373895 86.931831 0 1 -4.7727,16.19522 17.728754,17.373895 86.931831 0 1 -10.73185,-12.9119 17.728754,17.373895 86.931831 0 1 4.77328,-16.19536 z"
         style="fill:#9acd32;fill-opacity:1;stroke:none;stroke-width:1.06871" />
      <path
         id="path3741"
         d="m 229.23072,593.67866 a 23.035504,23.42753 85.222403 0 0 21.31426,6.54273 23.035504,23.42753 85.222403 0 0 17.22992,-14.06293 23.035504,23.42753 85.222403 0 0 -21.31434,-6.54355 23.035504,23.42753 85.222403 0 0 -17.22984,14.06375 z"
         style="fill:#9acd32;fill-opacity:1;stroke:none;stroke-width:1.06871" />
      <path
         style="fill:#9acd32;fill-opacity:1;stroke:none;stroke-width:1.06871"
         d="m 241.49169,549.0434 a 14.64299,14.383775 0 0 0 13.51236,3.47866 14.64299,14.383775 0 0 0 10.32344,-9.25592 14.64299,14.383775 0 0 0 -13.51244,-3.4791 14.64299,14.383775 0 0 0 -10.32334,9.25638 z"
         id="path3743" />
      <path
         style="fill:#9acd32;fill-opacity:1;stroke:none;stroke-width:1.06871"
         d="m 238.98853,570.73596 a 17.535178,18.44272 42.712024 0 0 16.21211,4.73397 17.535178,18.44272 42.712024 0 0 13.46768,-11.31372 17.535178,18.44272 42.712024 0 0 -16.21218,-4.73463 17.535178,18.44272 42.712024 0 0 -13.46761,11.31438 z"
         id="path3745" />
      <path
         id="path3747"
         d="m 241.34785,534.33028 a 14.64299,14.383775 0 0 0 13.95193,-0.67261 14.64299,14.383775 0 0 0 7.01307,-11.87637 14.64299,14.383775 0 0 0 -13.95214,0.67222 14.64299,14.383775 0 0 0 -7.01283,11.87678 z"
         style="fill:#9acd32;fill-opacity:1;stroke:none;stroke-width:1.06871" />
      <path
         id="path3749"
         d="m 443.91984,641.17264 a 14.64299,14.383775 0 0 1 -13.90544,-1.30457 14.64299,14.383775 0 0 1 -6.44746,-12.1817 14.64299,14.383775 0 0 1 13.90567,1.30417 14.64299,14.383775 0 0 1 6.44721,12.1821 z"
         style="fill:#9acd32;fill-opacity:1;stroke:none;stroke-width:1.06871" />
      <path
         id="path3751"
         d="m 437.75512,661.04762 a 18.471002,17.778174 77.062382 0 1 -16.88425,-2.28026 18.471002,17.778174 77.062382 0 1 -7.56906,-15.88724 18.471002,17.778174 77.062382 0 1 16.8846,2.2797 18.471002,17.778174 77.062382 0 1 7.56871,15.8878 z"
         style="fill:#9acd32;fill-opacity:1;stroke:none;stroke-width:1.06871" />
      <path
         style="fill:#9acd32;fill-opacity:1;stroke:none;stroke-width:1.06871"
         d="m 449.18053,630.4732 a 14.64299,14.383775 0 0 1 -11.84499,-7.27307 14.64299,14.383775 0 0 1 -0.22364,-13.72798 14.64299,14.383775 0 0 1 11.84538,7.27283 14.64299,14.383775 0 0 1 0.22324,13.72821 z"
         id="path3753" />
      <path
         style="fill:#9acd32;fill-opacity:1;stroke:none;stroke-width:1.06871"
         d="m 440.27547,680.26711 a 22.524314,21.524457 56.39942 0 1 -20.49785,2.8949 22.524314,21.524457 56.39942 0 1 -14.26038,-16.06382 22.524314,21.524457 56.39942 0 1 20.49807,-2.89565 22.524314,21.524457 56.39942 0 1 14.26016,16.06457 z"
         id="path3755" />
      <path
         id="path3757"
         d="m 455.76495,620.03482 a 14.64299,14.383775 0 0 1 -5.02434,-12.80313 14.64299,14.383775 0 0 1 8.21427,-11.10851 14.64299,14.383775 0 0 1 5.02478,12.80315 14.64299,14.383775 0 0 1 -8.21471,11.10847 z"
         style="fill:#9acd32;fill-opacity:1;stroke:none;stroke-width:1.06871" />
      <path
         style="fill:#9acd32;fill-opacity:1;stroke:none;stroke-width:1.06871"
         d="m 413.28549,582.46251 a 21.061992,20.689146 0 0 0 -12.38538,-15.54069 21.061992,20.689146 0 0 0 -20.0237,1.76579 21.061992,20.689146 0 0 0 12.38504,15.54128 21.061992,20.689146 0 0 0 20.02407,-1.7664 z"
         id="path3759" />
      <path
         style="fill:#9acd32;fill-opacity:1;stroke:none;stroke-width:1.06871"
         d="m 539.4966,614.49119 a 23.365862,22.930771 4.5523169 0 1 -18.06282,12.76312 23.365862,22.930771 4.5523169 0 1 -20.78954,-7.98197 23.365862,22.930771 4.5523169 0 1 18.06268,-12.76391 23.365862,22.930771 4.5523169 0 1 20.78968,7.98276 z"
         id="path3761" />
      <path
         id="path3763"
         d="m 155.73696,456.18559 a 22.548567,22.149406 0 0 0 21.50983,-0.13692 22.548567,22.149406 0 0 0 11.5817,-17.8203 22.548567,22.149406 0 0 0 -21.51015,0.13623 22.548567,22.149406 0 0 0 -11.58138,17.82099 z"
         style="fill:#9acd32;fill-opacity:1;stroke:none;stroke-width:1.06871" />
      <path
         style="fill:#9acd32;fill-opacity:1;stroke:none;stroke-width:1.06871"
         d="m 151.24329,433.84874 a 18.839565,18.506061 0 0 0 17.97166,-0.1144 18.839565,18.506061 0 0 0 9.67663,-14.88905 18.839565,18.506061 0 0 0 -17.97194,0.11382 18.839565,18.506061 0 0 0 -9.67635,14.88963 z"
         id="path3765" />
      <path
         id="path3767"
         d="m 147.63379,415.04603 a 17.512678,17.202663 0 0 0 16.70592,-0.10628 17.512678,17.202663 0 0 0 8.99511,-13.84041 17.512678,17.202663 0 0 0 -16.70618,0.10584 17.512678,17.202663 0 0 0 -8.99485,13.84093 z"
         style="fill:#9acd32;fill-opacity:1;stroke:none;stroke-width:1.06871" />
      <path
         style="fill:#9acd32;fill-opacity:1;stroke:none;stroke-width:1.06871"
         d="m 146.81665,398.09551 a 14.64299,14.383775 0 0 0 13.96843,-0.089 14.64299,14.383775 0 0 0 7.52114,-11.57247 14.64299,14.383775 0 0 0 -13.96864,0.0885 14.64299,14.383775 0 0 0 -7.52093,11.57293 z"
         id="path3769" />
      <path
         style="fill:#9acd32;fill-opacity:1;stroke:none;stroke-width:1.06871"
         d="m 207.97031,415.47661 a 14.64299,14.383775 0 0 1 -13.57924,-3.21761 14.64299,14.383775 0 0 1 -4.63438,-12.95301 14.64299,14.383775 0 0 1 13.57955,3.2172 14.64299,14.383775 0 0 1 4.63407,12.95342 z"
         id="path3771" />
      <path
         id="path3773"
         d="m 231.30621,392.73679 a 14.64299,14.383775 0 0 1 -4.35032,-13.03903 14.64299,14.383775 0 0 1 8.78251,-10.68079 14.64299,14.383775 0 0 1 4.35081,13.0391 14.64299,14.383775 0 0 1 -8.783,10.68072 z"
         style="fill:#9acd32;fill-opacity:1;stroke:none;stroke-width:1.06871" />
      <path
         id="path3775"
         d="m 201.96965,433.4076 a 17.131518,16.828251 0 0 1 -15.88699,-3.76442 17.131518,16.828251 0 0 1 -5.42198,-15.15435 17.131518,16.828251 0 0 1 15.88735,3.76397 17.131518,16.828251 0 0 1 5.42162,15.1548 z"
         style="fill:#9acd32;fill-opacity:1;stroke:none;stroke-width:1.06871" />
      <path
         id="path3777"
         d="m 251.58627,463.68218 a 19.67888,19.330519 0 0 0 18.42307,-3.54249 19.67888,19.330519 0 0 0 6.99105,-17.12594 19.67888,19.330519 0 0 0 -18.42347,3.54197 19.67888,19.330519 0 0 0 -6.99065,17.12646 z"
         style="fill:#9acd32;fill-opacity:1;stroke:none;stroke-width:1.06871" />
      <path
         style="fill:#9acd32;fill-opacity:1;stroke:none;stroke-width:1.06871"
         d="m 243.55343,446.56554 a 18.839565,18.506061 0 0 0 17.63731,-3.39142 18.839565,18.506061 0 0 0 6.69287,-16.3955 18.839565,18.506061 0 0 0 -17.63768,3.39091 18.839565,18.506061 0 0 0 -6.6925,16.39601 z"
         id="path3779" />
      <path
         id="path3781"
         d="m 237.51079,427.56334 a 17.363865,17.056485 0 0 0 16.25579,-3.12577 17.363865,17.056485 0 0 0 6.16862,-15.11125 17.363865,17.056485 0 0 0 -16.25612,3.12529 17.363865,17.056485 0 0 0 -6.16829,15.11173 z"
         style="fill:#9acd32;fill-opacity:1;stroke:none;stroke-width:1.06871" />
      <path
         style="fill:#9acd32;fill-opacity:1;stroke:none;stroke-width:1.06871"
         d="m 233.90557,408.77843 a 14.64299,14.383775 0 0 0 13.70854,-2.63598 14.64299,14.383775 0 0 0 5.20202,-12.74335 14.64299,14.383775 0 0 0 -13.70883,2.63557 14.64299,14.383775 0 0 0 -5.20173,12.74376 z"
         id="path3783" />
      <path
         style="fill:#9acd32;fill-opacity:1;stroke:none;stroke-width:1.06871"
         d="m 295.4583,485.06133 a 18.610153,18.903789 86.375454 0 0 17.97996,1.31561 18.610153,18.903789 86.375454 0 0 10.93104,-14.15497 18.610153,18.903789 86.375454 0 0 -17.98018,-1.31622 18.610153,18.903789 86.375454 0 0 -10.93082,14.15558 z"
         id="path3785" />
      <path
         id="path3787"
         d="m 291.26282,449.73018 a 14.64299,14.383775 0 0 0 13.96334,0.38124 14.64299,14.383775 0 0 0 7.92032,-11.31261 14.64299,14.383775 0 0 0 -13.96349,-0.38163 14.64299,14.383775 0 0 0 -7.92015,11.31301 z"
         style="fill:#9acd32;fill-opacity:1;stroke:none;stroke-width:1.06871" />
      <path
         id="path3789"
         d="m 294.05027,466.30743 a 15.448498,16.12437 27.970377 0 0 14.81668,0.88038 15.448498,16.12437 27.970377 0 0 9.22247,-12.30155 15.448498,16.12437 27.970377 0 0 -14.81687,-0.88093 15.448498,16.12437 27.970377 0 0 -9.22228,12.3021 z"
         style="fill:#9acd32;fill-opacity:1;stroke:none;stroke-width:1.06871" />
      <path
         style="fill:#9acd32;fill-opacity:1;stroke:none;stroke-width:1.06871"
         d="m 288.25589,436.46585 a 14.64299,14.383775 0 0 0 13.43405,-3.75993 14.64299,14.383775 0 0 0 4.09169,-13.12825 14.64299,14.383775 0 0 0 -13.43434,3.75959 14.64299,14.383775 0 0 0 -4.09137,13.1286 z"
         id="path3791" />
      <path
         style="fill:#9acd32;fill-opacity:1;stroke:none;stroke-width:1.06871"
         d="m 145.20968,463.60647 a 22.548567,22.149406 0 0 1 -20.75157,5.5623 22.548567,22.149406 0 0 1 -16.04221,-14.09503 22.548567,22.149406 0 0 1 20.75168,-5.56306 22.548567,22.149406 0 0 1 16.0421,14.09579 z"
         id="path3793" />
      <path
         id="path3795"
         d="m 141.82967,439.35511 a 18.839565,18.506061 0 0 1 -17.33815,4.64736 18.839565,18.506061 0 0 1 -13.40342,-11.77656 18.839565,18.506061 0 0 1 17.33823,-4.64798 18.839565,18.506061 0 0 1 13.40334,11.77718 z"
         style="fill:#9acd32;fill-opacity:1;stroke:none;stroke-width:1.06871" />
      <path
         style="fill:#9acd32;fill-opacity:1;stroke:none;stroke-width:1.06871"
         d="m 141.19996,415.12141 a 17.512678,17.202663 0 0 1 -16.117,4.3201 17.512678,17.202663 0 0 1 -12.45943,-10.94715 17.512678,17.202663 0 0 1 16.11711,-4.32061 17.512678,17.202663 0 0 1 12.45933,10.94769 z"
         id="path3797" />
      <path
         id="path3799"
         d="m 142.07434,397.03037 a 14.64299,14.383775 0 0 1 -13.47603,3.61209 14.64299,14.383775 0 0 1 -10.41777,-9.15329 14.64299,14.383775 0 0 1 13.47609,-3.61265 14.64299,14.383775 0 0 1 10.41768,9.15377 z"
         style="fill:#9acd32;fill-opacity:1;stroke:none;stroke-width:1.06871" />
      <path
         style="fill:#9acd32;fill-opacity:1;stroke:none;stroke-width:1.06871"
         d="m 148.28563,534.12508 a 21.507938,21.127198 0 0 0 8.98029,-18.12125 21.507938,21.127198 0 0 0 -10.60979,-17.26473 21.507938,21.127198 0 0 0 -8.98098,18.1213 21.507938,21.127198 0 0 0 10.61048,17.26468 z"
         id="path3801" />
      <path
         style="fill:#9acd32;fill-opacity:1;stroke:none;stroke-width:1.06871"
         d="m 230.01469,647.59313 a 43.841939,42.84729 0 0 1 13.53863,38.67335 43.841939,42.84729 0 0 1 -25.87163,32.14671 43.841939,42.84729 0 0 1 -13.54008,-38.67358 43.841939,42.84729 0 0 1 25.87308,-32.14648 z"
         id="path3803" />
      <path
         style="fill:#9acd32;fill-opacity:1;stroke:none;stroke-width:1.06871"
         d="m 227.72352,562.94933 a 18.902122,18.611794 3.2983892 0 1 -18.01971,0.59186 18.902122,18.611794 3.2983892 0 1 -10.33228,-14.58245 18.902122,18.611794 3.2983892 0 1 18.01995,-0.59245 18.902122,18.611794 3.2983892 0 1 10.33204,14.58304 z"
         id="path3805" />
      <path
         id="path3807"
         d="m 234.50729,543.55763 a 16.803254,16.505798 0 0 1 -16.02813,-0.20692 16.803254,16.505798 0 0 1 -8.54046,-13.33597 16.803254,16.505798 0 0 1 16.02834,0.20646 16.803254,16.505798 0 0 1 8.54023,13.33644 z"
         style="fill:#9acd32;fill-opacity:1;stroke:none;stroke-width:1.06871" />
      <path
         id="path3809"
         d="m 339.84363,286.81851 a 16.366661,15.219799 2.1904663 0 1 -4.97527,13.73756 16.366661,15.219799 2.1904663 0 1 -15.13402,3.52082 16.366661,15.219799 2.1904663 0 1 4.97484,-13.73794 16.366661,15.219799 2.1904663 0 1 15.13445,-3.52044 z"
         style="fill:#9acd32;fill-opacity:1;stroke:none;stroke-width:1.06871" />
      <path
         style="fill:#9acd32;fill-opacity:1;stroke:none;stroke-width:1.06871"
         d="m 232.84255,528.02535 a 14.64299,14.383775 0 0 1 -13.26619,-4.29672 14.64299,14.383775 0 0 1 -3.54143,-13.2817 14.64299,14.383775 0 0 1 13.26649,4.2964 14.64299,14.383775 0 0 1 3.54108,13.28204 z"
         id="path3811" />
      <path
         style="fill:#9acd32;fill-opacity:1;stroke:none;stroke-width:1.06871"
         d="m 202.67059,472.47531 a 22.831832,22.427656 0 0 1 20.07452,-8.30032 22.831832,22.427656 0 0 1 18.01515,12.04734 22.831832,22.427656 0 0 1 -20.07459,8.30108 22.831832,22.427656 0 0 1 -18.01508,-12.0481 z"
         id="path3813" />
      <path
         id="path3815"
         d="m 204.31439,446.4969 a 19.642449,19.294733 0 0 1 18.68441,-1.39005 19.642449,19.294733 0 0 1 11.35069,14.65887 19.642449,19.294733 0 0 1 -18.6847,1.39065 19.642449,19.294733 0 0 1 -11.3504,-14.65947 z"
         style="fill:#9acd32;fill-opacity:1;stroke:none;stroke-width:1.06871" />
      <path
         style="fill:#9acd32;fill-opacity:1;stroke:none;stroke-width:1.06871"
         d="m 211.48958,422.23315 a 15.116592,14.610142 44.189322 0 1 13.45027,4.96552 15.116592,14.610142 44.189322 0 1 3.52338,13.85083 15.116592,14.610142 44.189322 0 1 -13.45062,-4.96516 15.116592,14.610142 44.189322 0 1 -3.52303,-13.85119 z"
         id="path3817" />
      <path
         id="path3821"
         d="m 212.30552,418.88378 a 12.222478,12.006112 0 0 0 11.4425,-2.20024 12.222478,12.006112 0 0 0 4.34211,-10.63686 12.222478,12.006112 0 0 0 -11.44274,2.19992 12.222478,12.006112 0 0 0 -4.34187,10.63718 z"
         style="fill:#9acd32;fill-opacity:1;stroke:none;stroke-width:1.06871" />
      <path
         id="path3823"
         d="m 200.16863,506.49028 a 20.755619,20.388197 0 0 0 -13.39067,14.32687 20.755619,20.388197 0 0 0 4.96676,18.83963 20.755619,20.388197 0 0 0 13.39136,-14.32669 20.755619,20.388197 0 0 0 -4.96745,-18.83981 z"
         style="fill:#9acd32;fill-opacity:1;stroke:none;stroke-width:1.06871" />
      <path
         style="fill:#9acd32;fill-opacity:1;stroke:none;stroke-width:1.06871"
         d="m 182.42252,479.83643 a 12.513443,12.291926 0 0 0 11.64521,2.57764 12.513443,12.291926 0 0 0 8.53759,-8.20551 12.513443,12.291926 0 0 0 -11.64534,-2.57806 12.513443,12.291926 0 0 0 -8.53746,8.20593 z"
         id="path3825" />
      <path
         id="path3827"
         d="m 169.10386,492.92253 a 20.17783,19.820636 0 0 0 16.43924,9.83586 20.17783,19.820636 0 0 0 17.35082,-8.21307 20.17783,19.820636 0 0 0 -16.43919,-9.83652 20.17783,19.820636 0 0 0 -17.35087,8.21373 z"
         style="fill:#9acd32;fill-opacity:1;stroke:none;stroke-width:1.06871" />
      <path
         id="path3829"
         d="m 163.32779,550.59494 a 27.798429,27.306333 0 0 1 3.76667,25.78478 27.798429,27.306333 0 0 1 -19.99781,17.13149 27.798429,27.306333 0 0 1 -3.76755,-25.78509 27.798429,27.306333 0 0 1 19.99869,-17.13118 z"
         style="fill:#9acd32;fill-opacity:1;stroke:none;stroke-width:1.06871" />
      <path
         id="path3831"
         d="m 275.85265,494.20682 a 19.876547,19.524687 0 0 1 -12.63197,-13.89052 19.876547,19.524687 0 0 1 5.00634,-17.97634 19.876547,19.524687 0 0 1 12.6326,13.89035 19.876547,19.524687 0 0 1 -5.00697,17.97651 z"
         style="fill:#9acd32;fill-opacity:1;stroke:none;stroke-width:1.06871" />
      <path
         id="path4013"
         d="m 531.77663,670.99757 a 40.434453,39.71867 0 0 0 -20.67076,31.98966 40.434453,39.71867 0 0 0 16.10924,34.45234 40.434453,39.71867 0 0 0 20.67212,-31.98957 40.434453,39.71867 0 0 0 -16.1106,-34.45243 z"
         style="fill:#9acd32;fill-opacity:1;stroke:none;stroke-width:1.06871" />
      <path
         style="fill:#9acd32;fill-opacity:1;stroke:none;stroke-width:1.06871"
         d="m 691.58053,651.00985 a 19.439695,19.095568 0 0 1 -8.93895,-15.96026 19.439695,19.095568 0 0 1 8.78456,-16.05529 19.439695,19.095568 0 0 1 8.93961,15.96026 19.439695,19.095568 0 0 1 -8.78522,16.05529 z"
         id="path4015" />
      <path
         id="path4017"
         d="m 348.67355,410.9683 a 26.513498,21.211513 0 0 1 3.12907,20.07929 26.513498,21.211513 0 0 1 -19.37775,13.02331 26.513498,21.211513 0 0 1 -3.12988,-20.07954 26.513498,21.211513 0 0 1 19.37856,-13.02306 z"
         style="fill:#9acd32;fill-opacity:1;stroke:none;stroke-width:1.06871" />
      <path
         style="fill:#9acd32;fill-opacity:1;stroke:none;stroke-width:1.06871"
         d="m 329.41106,409.28667 a 16.919594,16.620078 0 0 1 -4.11442,15.33095 16.919594,16.620078 0 0 1 -15.34601,4.94383 16.919594,16.620078 0 0 1 4.11401,-15.33135 16.919594,16.620078 0 0 1 15.34642,-4.94343 z"
         id="path4019" />
      <path
         id="path4021"
         d="m 279.06628,383.14718 a 14.554679,14.297028 0 0 1 -3.53934,13.18809 14.554679,14.297028 0 0 1 -13.20104,4.2528 14.554679,14.297028 0 0 1 3.53898,-13.1884 14.554679,14.297028 0 0 1 13.2014,-4.25249 z"
         style="fill:#9acd32;fill-opacity:1;stroke:none;stroke-width:1.06871" />
      <path
         style="fill:#9acd32;fill-opacity:1;stroke:none;stroke-width:1.06871"
         d="m 266.27855,372.61529 a 15.016786,14.750954 0 0 1 -7.33982,12.08426 15.016786,14.750954 0 0 1 -14.32428,0.517 15.016786,14.750954 0 0 1 7.33958,-12.08473 15.016786,14.750954 0 0 1 14.32452,-0.51653 z"
         id="path4023" />
      <path
         id="path4025"
         d="m 255.32783,362.23532 a 13.135729,12.903196 0 0 1 -11.16695,5.58448 13.135729,12.903196 0 0 1 -10.84838,-6.17558 13.135729,12.903196 0 0 1 11.16698,-5.58493 13.135729,12.903196 0 0 1 10.84835,6.17603 z"
         style="fill:#9acd32;fill-opacity:1;stroke:none;stroke-width:1.06871" />
      <path
         style="fill:#9acd32;fill-opacity:1;stroke:none;stroke-width:1.06871"
         d="m 276.38734,374.99737 a 18.839565,18.506061 0 0 0 15.07535,-9.61091 18.839565,18.506061 0 0 0 -0.0183,-17.66452 18.839565,18.506061 0 0 0 -15.07588,9.61057 18.839565,18.506061 0 0 0 0.0188,17.66486 z"
         id="path4027" />
      <path
         id="path4029"
         d="m 263.09494,363.19495 a 14.64299,14.383775 0 0 0 11.71725,-7.47005 14.64299,14.383775 0 0 0 -0.0143,-13.72968 14.64299,14.383775 0 0 0 -11.71768,7.46977 14.64299,14.383775 0 0 0 0.0147,13.72996 z"
         style="fill:#9acd32;fill-opacity:1;stroke:none;stroke-width:1.06871" />
      <path
         style="fill:#9acd32;fill-opacity:1;stroke:none;stroke-width:1.06871"
         d="m 251.66164,351.6571 a 14.64299,14.383775 0 0 0 11.71726,-7.47004 14.64299,14.383775 0 0 0 -0.0143,-13.7297 14.64299,14.383775 0 0 0 -11.71769,7.46978 14.64299,14.383775 0 0 0 0.0147,13.72996 z"
         id="path4031" />
      <path
         style="fill:#9acd32;fill-opacity:1;stroke:none;stroke-width:1.06871"
         d="m 450.40893,332.79478 a 14.921052,14.656915 0 0 0 8.62786,11.12063 14.921052,14.656915 0 0 0 14.20086,-1.06975 14.921052,14.656915 0 0 0 -8.62762,-11.12109 14.921052,14.656915 0 0 0 -14.2011,1.07021 z"
         id="path4035" />
      <path
         style="fill:#9acd32;fill-opacity:1;stroke:none;stroke-width:1.06871"
         d="m 502.06687,393.48659 a 16.849413,15.746733 0 0 0 12.24137,-9.73497 16.849413,15.746733 0 0 0 -2.09089,-14.90312 16.849413,15.746733 0 0 0 -12.24192,9.73474 16.849413,15.746733 0 0 0 2.09144,14.90335 z"
         id="path4037" />
      <path
         id="path4039"
         d="m 442.49512,289.3673 a 13.087366,12.85569 0 0 0 12.4316,-1.13016 13.087366,12.85569 0 0 0 5.79498,-10.8709 13.087366,12.85569 0 0 0 -12.4318,1.12979 13.087366,12.85569 0 0 0 -5.79478,10.87127 z"
         style="fill:#9acd32;fill-opacity:1;stroke:none;stroke-width:1.06871" />
      <path
         style="fill:#9acd32;fill-opacity:1;stroke:none;stroke-width:1.06871"
         d="m 313.40156,407.55199 a 13.135729,12.903196 0 0 1 -11.16696,5.58448 13.135729,12.903196 0 0 1 -10.84837,-6.17557 13.135729,12.903196 0 0 1 11.16698,-5.58494 13.135729,12.903196 0 0 1 10.84835,6.17603 z"
         id="path4041" />
      <path
         style="fill:#9acd32;fill-opacity:1;stroke:none;stroke-width:1.06871"
         d="m 124.60972,474.36265 a 16.51748,16.225083 0 0 0 9.85736,12.07514 16.51748,16.225083 0 0 0 15.68569,-1.56501 16.51748,16.225083 0 0 0 -9.85711,-12.07564 16.51748,16.225083 0 0 0 -15.68594,1.56551 z"
         id="path4043" />
      <path
         id="path4045"
         d="m 304.68591,381.80889 a 20.87808,20.50849 0 0 0 12.45969,15.26297 20.87808,20.50849 0 0 0 19.82668,-1.97816 20.87808,20.50849 0 0 0 -12.45939,-15.2636 20.87808,20.50849 0 0 0 -19.82698,1.97879 z"
         style="fill:#9acd32;fill-opacity:1;stroke:none;stroke-width:1.06871" />
    </g>
  </g>
</svg>
